<svg width="512" height="82" viewBox="0 0 512 82" fill="none" xmlns="http://www.w3.org/2000/svg">
<g filter="url(#filter0_d_459_1894)">
<path fill-rule="evenodd" clip-rule="evenodd" d="M18.008 39.8767V45.3997H14.2817V56.6041H10.5554V67.783H18.008V56.6041H44.1431V67.783H51.6213V56.6041H47.8694V45.3997H44.1431V39.8767H36.6906V45.3997H40.4169V49.126H21.7343V45.3997H25.4861V39.8767H18.008ZM59.0483 39.8767V67.783H66.5009V39.8767H59.0483ZM88.8587 39.8767V67.783H96.3113V43.5365H122.446V67.783H129.925V39.8767H88.8587ZM144.804 39.8767V45.3997H141.078V56.6041H137.352V67.783H144.804V56.6041H170.939V67.783H178.417V56.6041H174.666V45.3997H170.939V39.8767H163.487V45.3997H167.213V49.126H148.531V45.3997H152.282V39.8767H144.804ZM184.007 39.8767V56.6041H187.733V60.3304H191.46V64.0567H195.186V67.783H217.595V64.0567H221.321V60.3304H225.073V56.6041H228.799V49.126H221.321V52.8523H217.595V56.6041H213.868V60.3304H198.938V56.6041H195.186V52.8523H191.46V39.8767H184.007ZM236.277 39.8767V67.783H243.73V49.126H247.456V52.8523H251.208V56.6041H254.934V60.3304H258.661V64.0567H262.412V67.783H271.728V64.0567H268.002V60.3304H264.275V56.6041H260.524V52.8523H256.797V49.126H253.071V45.3997H249.345V39.8767H236.277ZM284.77 39.8767V45.3997H281.044V56.6041H277.318V67.783H284.77V56.6041H310.905V67.783H318.383V56.6041H314.632V45.3997H310.905V39.8767H303.453V45.3997H307.179V49.126H288.496V45.3997H292.248V39.8767H284.77ZM331.425 39.8767V67.783H338.878V39.8767H331.425ZM359.398 39.8767V67.783H366.851V43.5365H392.986V67.783H400.464V39.8767H359.398ZM407.891 39.8767V56.6041H411.617V60.3304H415.344V64.0567H419.07V67.783H441.479V64.0567H445.205V60.3304H448.957V56.6041H452.683V39.8767H445.205V52.8523H441.479V56.6041H437.753V60.3304H422.822V56.6041H419.07V52.8523H415.344V39.8767H407.891ZM460.161 39.8767V67.783H467.614V39.8767H460.161ZM475.092 39.8767V45.3997H478.818V52.8523H482.545V60.3304H486.296V67.783H497.475V39.8767H490.023V52.8523H486.296V45.3997H482.545V39.8767H475.092Z" fill="white"/>
<path fill-rule="evenodd" clip-rule="evenodd" d="M60.6438 39.888H53.1912V15.5127H60.6438V39.888ZM124.067 39.888H83.0016V15.5127H90.4542V36.0584H116.589V15.5127H124.067V39.888ZM165.082 39.888V34.1952H161.356V22.9908H157.63V15.5127H146.425V22.9908H142.673V34.1952H138.947V39.888H146.425V34.1952H150.152V26.7171H153.878V34.1952H157.63V39.888H165.082ZM185.602 39.888H178.15V26.7171H181.876V22.9908H185.602V19.2645H189.329V15.5127H211.738V19.2645H215.464V22.9908H219.216V26.7171H222.942V34.1952H215.464V30.4689H211.738V26.7171H208.011V22.9908H193.081V26.7171H189.329V30.4689H185.602V39.888ZM243.488 39.888H230.42V15.5127H237.873V34.1952H241.599V30.4689H245.351V26.7171H249.077V22.9908H252.803V19.2645H256.555V15.5127H265.871V19.2645H262.145V22.9908H258.418V26.7171H254.667V30.4689H250.94V34.1952H247.214V37.9215H243.488V39.888ZM305.048 39.888V34.1952H301.322V22.9908H297.596V15.5127H286.391V22.9908H282.639V34.1952H278.913V39.888H286.391V34.1952H290.117V26.7171H293.844V34.1952H297.596V39.888H305.048ZM333.021 39.888H325.568V22.9908H310.638V15.5127H347.952V22.9908H333.021V39.888ZM394.607 39.888H353.541V15.5127H360.994V36.0584H387.129V15.5127H394.607V39.888ZM446.826 39.888V26.7171H443.1V22.9908H439.348V19.2645H435.622V15.5127H413.213V19.2645H409.487V22.9908H405.76V26.7171H402.034V39.888H409.487V30.4689H413.213V26.7171H416.965V22.9908H431.895V26.7171H435.622V30.4689H439.348V39.888H446.826ZM461.757 39.888H454.304V15.5127H465.483V22.9908H469.235V30.4689H472.961V37.9215H476.688V39.888H469.235V37.9215H465.483V30.4689H461.757V39.888ZM12.1509 39.888V34.1952H15.8772V22.9908H19.629V15.5127H30.8334V22.9908H34.5597V34.1952H38.286V39.888H30.8334V34.1952H27.0816V26.7171H23.3553V34.1952H19.629V39.888H12.1509ZM491.618 39.888V15.5127H484.166V39.888H491.618Z" fill="white"/>
<rect x="494.676" y="65" width="7" height="7" fill="white"/>
<rect x="448.676" y="10" width="7" height="7" fill="white"/>
<rect x="398.676" y="65" width="7" height="7" fill="white"/>
<rect x="305.676" y="10" width="7" height="7" fill="white"/>
<rect x="78.6758" y="10" width="7" height="7" fill="white"/>
<rect x="48.6758" y="10" width="7" height="7" fill="white"/>
<rect x="126.676" y="65" width="7" height="7" fill="white"/>
<rect x="64.6758" y="65" width="7" height="7" fill="white"/>
</g>
<defs>
<filter id="filter0_d_459_1894" x="0.55542" y="0" width="511.12" height="82" filterUnits="userSpaceOnUse" color-interpolation-filters="sRGB">
<feFlood flood-opacity="0" result="BackgroundImageFix"/>
<feColorMatrix in="SourceAlpha" type="matrix" values="0 0 0 0 0 0 0 0 0 0 0 0 0 0 0 0 0 0 127 0" result="hardAlpha"/>
<feOffset/>
<feGaussianBlur stdDeviation="5"/>
<feComposite in2="hardAlpha" operator="out"/>
<feColorMatrix type="matrix" values="0 0 0 0 1 0 0 0 0 1 0 0 0 0 1 0 0 0 0.25 0"/>
<feBlend mode="normal" in2="BackgroundImageFix" result="effect1_dropShadow_459_1894"/>
<feBlend mode="normal" in="SourceGraphic" in2="effect1_dropShadow_459_1894" result="shape"/>
</filter>
</defs>
</svg>
