<svg id="Layer_1" data-name="Layer 1" xmlns="http://www.w3.org/2000/svg" viewBox="0 0 596.79 207.46"><defs><style>.cls-1{fill:#ffb700;}.cls-2{fill:#15284b;}</style></defs><path class="cls-1" d="M89.12,124.66c-3.46,0-4.45.49-4.45,3.21V150c0,1.12.37,8,1.48,9.27,1.36,1.49,5.31,2.35,9.27,2.35,9.39,0,16.31-6.43,16.31-17.18,0-11.12-9.14-19.77-22.61-19.77m4.07-34.48c-8.15,0-8.52,1.11-8.52,3.58v26.82c0,2,1.6,1.73,4.57,1.73a99.71,99.71,0,0,1,12.73.74c3.58-2.72,7.66-5.07,7.66-14.83,0-6.18-5.19-18-16.44-18m1.61,73.65c-5.19,0-10.38-1.23-15.82-1.23-5.19,0-7.91.49-11.86.49-1.24,0-2.1-.12-2.1-1.36s.74-1.48,3.46-1.48c5.56,0,5.81-.25,5.81-2.1V101.3c0-9.76-2-10.87-5.44-10.87-5.56,0-6.06-.13-6.06-1.61,0-.87.37-1,2.47-1,3.84,0,7.67.12,12,.12,2.6,0,8.53-.74,19.65-.74,16.07,0,23,8.28,23,17.06s-5.31,13.1-9.27,15.81c-2.35,1.61-5.07,3-5.07,3.34s2.35.87,4.82,2.1c5.81,3,13.1,7.17,13.1,17.92,0,13.84-11.49,20.39-28.67,20.39" transform="translate(-62.79 -87.21)"/><path class="cls-1" d="M146.32,120.25c-8.17,0-10.75,12.25-10.75,13.76,0,.53,0,.64,1.29.64,5.59,0,11.39-1.4,19.45-2.69,1.19-.21,1.3-.43,1.3-1.07,0-2.69-6.35-10.64-11.29-10.64m16.55,12.89a165.68,165.68,0,0,1-25.79,3.77c-1.73.11-2.05.64-2.05,3.12,0,14.83,11.5,18.81,19.67,18.81,7.1,0,11-2.58,11.61-2.58s.86.64.86.86c0,.53-9.13,7.31-17.84,7.31s-21.93-4.3-21.93-22.25c0-15.16,10.21-24.19,20-24.19,5.59,0,12.47,3.55,16.34,8.06,1.83,2.15,3.55,4.73,3.55,5.59,0,.43-1.5.86-4.41,1.5" transform="translate(-62.79 -87.21)"/><path class="cls-1" d="M202.21,130.24c-1.5,0-2.79-4.4-8.17-4.4-6.23,0-8.59,2.58-8.59,7.09v22.14c0,5.27.32,5.27,8.27,5.27,2.8,0,2.9.32,2.9,1.29,0,1.18-.1,1.08-2.9,1.08-1.5,0-8.7-.54-12.14-.54-3.66,0-7.31.54-8.82.54-2.47,0-2.69,0-2.69-1.08s.11-1.29,2.69-1.29c4.41,0,4.73-.11,4.73-1.61V129.28c0-7.31.21-7.53-5.8-7.53-1.94,0-1.94.11-1.94-1.07s-.11-1.62,1.72-1.62c3.66,0,5.7.22,7.85.22,1.72,0,3.76-.54,5.48-.54.43,0,.86.32.86,1.18,0,.54-.21,2.91-.21,3.23,0,1,.1,1.72.53,1.72,1.62,0,6.67-5.59,11.72-5.59,1.94,0,6.88,2.36,6.88,5.16,0,1.07-1.72,5.8-2.37,5.8" transform="translate(-62.79 -87.21)"/><path class="cls-1" d="M253.06,163.14c-1.29,0-2.69-.11-3.65-.11-1.29,0-4.52.11-6,.11-1.94,0-2.91-2.69-7.42-7.85s-9-11.93-9.68-11.93c-.43,0-1.93,1.07-3.76,2.25s-3.22,1.83-3.22,2.8v6.77c0,5-.22,5,6.44,5,2.48,0,2.91.54,2.91,1.4,0,1.08-.54,1.08-2.91,1.08-1.61,0-6.55-.22-10-.22-3.66,0-7.63.22-9.14.22-2.47,0-3.12-.11-3.12-1.08s.54-1.4,3.12-1.4c3.65,0,4.62,0,4.62-1.61,0-3.12.33-34.93.33-57.62,0-7.63-.86-8.59-3.77-8.59-4.4,0-4.83-.33-4.83-1.08,0-1.08.21-1.51,1.39-1.51,7.74,0,14.09-2.36,15-2.36.54,0,.76.32.76,1,0,1.39-.22,5.91-.22,9.35,0,16.34-.64,28.38-.64,45.9,0,.43.1.75.43.75,2.68,0,13.86-9.89,17.3-13.11,4.2-4,5.16-5.81,5.16-8.06,0-1.72-.32-1.94-5-1.94-1.61,0-2.15-.21-2.15-1.18s.54-1.08,1.94-1.08c1.07,0,3.11.32,4.4.32s7.63-.32,8.92-.32c.86,0,1.29.11,1.29.43,0,1-3.65,5.59-7,8.82-5.38,5.27-12,10-12,10.75,0,1,1.93,3,9.46,12,3.65,4.4,7.09,9.67,10.75,9.67,2.58,0,3.44.54,3.44,1.4s-.76,1-3.12,1" transform="translate(-62.79 -87.21)"/><path class="cls-1" d="M271.66,120.25c-8.17,0-10.75,12.25-10.75,13.76,0,.53,0,.64,1.29.64,5.59,0,11.39-1.4,19.45-2.69,1.19-.21,1.29-.43,1.29-1.07,0-2.69-6.34-10.64-11.28-10.64m16.55,12.89a165.67,165.67,0,0,1-25.8,3.77c-1.72.11-2,.64-2,3.12,0,14.83,11.5,18.81,19.67,18.81,7.1,0,11-2.58,11.61-2.58s.86.64.86.86c0,.53-9.14,7.31-17.84,7.31s-21.93-4.3-21.93-22.25c0-15.16,10.21-24.19,20-24.19,5.59,0,12.47,3.55,16.34,8.06,1.83,2.15,3.55,4.73,3.55,5.59,0,.43-1.5.86-4.41,1.5" transform="translate(-62.79 -87.21)"/><path class="cls-1" d="M311.88,162.71c-1.61,0-4-.22-5.91-.22-3.66,0-9.35.22-10.86.22-2.47,0-2.69-.22-2.69-1.08s.11-1.4,2.69-1.4c4.41,0,6.24.11,6.24-1.82V99.18c0-6.77-.65-6.77-5.48-6.77-1.94,0-3-.22-3-1.4s.86-1.18,2.69-1.29a57.19,57.19,0,0,0,13.12-2.37c.53,0,1.07.54,1.07,1.72s-.54,5.16-.54,8.39c0,41-.53,49.44-.53,52.56,0,8.92.75,10.11,2.68,10.11,5.38,0,5.16.64,5.16,1.5,0,1.08-.75,1.08-4.62,1.08" transform="translate(-62.79 -87.21)"/><path class="cls-1" d="M333.66,120.25c-8.17,0-10.75,12.25-10.75,13.76,0,.53,0,.64,1.29.64,5.59,0,11.39-1.4,19.46-2.69,1.18-.21,1.29-.43,1.29-1.07,0-2.69-6.35-10.64-11.29-10.64m16.55,12.89a165.67,165.67,0,0,1-25.8,3.77c-1.72.11-2,.64-2,3.12,0,14.83,11.5,18.81,19.67,18.81,7.1,0,11-2.58,11.61-2.58s.86.64.86.86c0,.53-9.13,7.31-17.84,7.31s-21.93-4.3-21.93-22.25c0-15.16,10.21-24.19,20-24.19,5.59,0,12.47,3.55,16.34,8.06,1.83,2.15,3.55,4.73,3.55,5.59,0,.43-1.51.86-4.41,1.5" transform="translate(-62.79 -87.21)"/><path class="cls-1" d="M398.91,121.64c-2.37,0-7.1,12.9-15.59,33.54-6.77,16.45-11.61,25.15-15.05,32.25-1.18,2.37-2.47,2.47-4.84,2.79-3.22.43-4,1.29-6.34,1.29-1.83,0-2.9-.53-2.9-1.07s5.05-1.29,8.71-5.91C366.77,179.69,376,167,376,163.78c0-1.18-8.6-21.07-14.51-35-2.69-6.45-3.44-7-5.38-7-2.15,0-2.25-.11-2.25-1.07s.32-1.51,2.25-1.51c3,0,3.77.21,6.35.21,3,0,6.77-.32,10.21-.32,2.25,0,2.68.43,2.68,1.62,0,1-.43,1.07-2.68,1.07-2.58,0-3.23.65-3.23,3.12,0,3.12,2.8,6.88,9.25,23.43.86,2.26,2.15,4.09,2.58,4.09.75,0,1.4-1.51,3.11-6.56,2.58-7.74,6.45-18.92,6.45-20.42,0-3.23,0-3.87-3.65-3.87-3.33,0-3.76,0-3.76-1.08,0-1.4.32-1.4,2.25-1.4,2.91,0,4.84.22,7.74.22,1.62,0,4.52-.43,6-.43,1.72,0,2.26.11,2.26,1.29,0,1-1.5,1.5-2.79,1.5" transform="translate(-62.79 -87.21)"/><polygon class="cls-2" points="396.1 161.11 396.1 167.39 361.04 167.39 361.04 195.76 400.12 195.76 400.12 201.94 354.27 201.94 354.27 129.11 398.55 129.11 398.55 135.12 360.77 135.09 360.83 161.11 396.1 161.11"/><path class="cls-2" d="M152.23,216.32h6.59v32.32l36.06-32.52,9.48,0-36.94,33.47,39,39.6-10.05-.06L159,251.79v37.48h-6.87Z" transform="translate(-62.79 -87.21)"/><path class="cls-2" d="M556.5,230c-1.69-1.39-3.15-2.69-4.68-4-8.48-6.95-22.52-7.25-32.69-.7-18.19,11.72-18.53,42.46-.53,54.47,11.91,8,29.25,7.08,38.55-5.31.42-.5.72-.9.72-.9l5.51,4.16a27.46,27.46,0,0,1-12.57,10.49c-21.42,8.72-50.79-2.13-52.2-33.36-.42-9.37,1.52-18.16,7.18-25.8,7.78-10.52,18.56-14.8,31.39-14.63,8.74.11,16.4,2.8,22.51,9.28.4.43,1.38,1.57,1.74,2Z" transform="translate(-62.79 -87.21)"/><path class="cls-2" d="M64.85,280l6.42-4.26c.74,1,1.36,1.82,2,2.64,5.82,7,17.46,8.53,25.11,3.57,7.09-4.61,9.53-17.46-1.28-22.49-3.69-1.72-7.67-2.8-11.49-4.25a76.37,76.37,0,0,1-9-3.67c-12.13-6.48-13.44-23.87-2.53-32.26,9.1-7,24.73-6.47,33.28,1.16,1,.87,1.8,1.9,2.85,3l-5.91,4.27c-5.57-7.2-12.79-8.56-21-6.16-6,1.76-9.19,5.93-9.7,12a12.18,12.18,0,0,0,7.6,12.66c4.39,2,9.08,3.3,13.64,4.91,1.1.39,2.22.72,3.31,1.15,10.27,4.07,14.32,11,12.81,21.83-1.21,8.74-9.25,15.92-18.79,16.69-7.21.58-14.27,0-20.45-4.19A32.21,32.21,0,0,1,64.85,280Z" transform="translate(-62.79 -87.21)"/><polygon class="cls-2" points="202.65 201.93 195.77 201.93 195.88 171.33 169.07 128.97 177.19 128.88 199.23 163.5 221.79 128.88 229.46 128.96 202.72 171.52 202.65 201.93"/><path class="cls-2" d="M605.44,215.89H612v32.33L648.1,215.7l9.47.05-36.94,33.47,39,39.6-10-.06L612.2,251.37v37.48h-6.88Z" transform="translate(-62.79 -87.21)"/><path class="cls-2" d="M331.66,210.67a43.76,43.76,0,0,0-9.5,1.05c.57,0,1.15-.05,1.73-.05,23.19,0,42,18.36,42,41s-18.81,41-42,41c-.58,0-1.16,0-1.73,0a44.39,44.39,0,0,0,9.5,1c23.75,0,43-18.8,43-42S355.41,210.67,331.66,210.67Z" transform="translate(-62.79 -87.21)"/></svg>