<svg width="101" height="53" viewBox="0 0 101 53" fill="none" xmlns="http://www.w3.org/2000/svg">
<path d="M24.3849 24.2279L26.7557 23.966C26.96 23.9433 27.1385 24.109 27.1289 24.3081L26.9085 27.8927C26.8936 28.0973 27.0775 28.2575 27.2818 28.2348C27.7495 28.1835 28.0989 28.1438 28.5828 28.0924C28.7441 28.0753 28.8778 27.9454 28.8876 27.7839L29.5388 17.1539C28.8452 17.2281 28.4528 17.2735 27.84 17.3417C27.6787 17.3589 27.545 17.4888 27.5352 17.6503L27.3099 21.321C27.3001 21.4824 27.1718 21.6123 27.0105 21.6295L24.6397 21.8913C24.4355 21.914 24.2569 21.7483 24.2665 21.5492L24.4769 18.0992C24.4918 17.8946 24.308 17.7343 24.1037 17.7571C23.636 17.8083 23.2919 17.8481 22.8027 17.8995C22.6414 17.9166 22.5077 18.0465 22.4979 18.208L21.8712 28.4504C21.8563 28.655 22.0402 28.8153 22.2445 28.7925C22.7122 28.7413 23.0563 28.7015 23.5455 28.6501C23.7068 28.633 23.8405 28.5031 23.8503 28.3416L24.0855 24.531C24.0952 24.3695 24.2236 24.2396 24.3849 24.2225L24.3849 24.2279Z" fill="#A4E6FF"/>
<path d="M35.6998 25.3753C35.8321 25.9071 35.9479 26.3745 36.1132 27.0138C36.1463 27.1481 36.2867 27.2441 36.4319 27.2324C36.9587 27.1754 37.3189 27.1356 37.8297 27.0787C38.0017 27.0615 38.119 26.8887 38.075 26.7275C36.9803 22.7312 36.4027 20.631 35.2805 16.5326L33.8236 16.6921C33.7161 16.7035 33.6251 16.7794 33.5881 16.8764C32.0054 21.1418 31.169 23.3958 29.6181 27.5749C29.5439 27.7691 29.7066 27.9779 29.9162 27.9551L31.2441 27.8072C31.3516 27.7958 31.4479 27.7145 31.485 27.6174C31.7547 26.8518 31.9452 26.318 32.1673 25.6872C32.2044 25.5847 32.2954 25.5088 32.4029 25.4974L35.3919 25.1673C35.5371 25.1503 35.6667 25.2464 35.7052 25.3806L35.6998 25.3753ZM34.266 19.5732C34.266 19.5732 34.2983 19.5731 34.3198 19.5675C34.6619 20.9805 35.153 23.022 35.153 23.022C34.3627 23.1075 33.7982 23.1701 33.0134 23.2609C33.0134 23.2609 33.7533 21.0774 34.266 19.5732Z" fill="#A4E6FF"/>
<path d="M44.9255 25.3037C44.7427 24.4332 44.6487 23.9979 44.4605 23.1275C44.1077 23.5062 43.792 23.7772 43.5078 23.9403C43.2237 24.1034 42.9069 24.2075 42.5575 24.2473C41.9124 24.3212 41.4323 24.1035 41.1226 23.5996C40.8076 23.0958 40.6846 22.3379 40.7431 21.3314C40.8016 20.3249 41.0281 19.5273 41.4066 18.9547C41.7851 18.3821 42.2995 18.0562 42.9393 17.9877C43.2887 17.948 43.6009 17.9837 43.8651 18.0844C44.1293 18.185 44.4211 18.3931 44.7296 18.6979C45.0253 17.7761 45.1731 17.3125 45.4688 16.3907C45.1924 16.0534 44.8466 15.8026 44.4314 15.6437C44.0162 15.4848 43.5532 15.4338 43.0264 15.4908C42.2039 15.5818 41.4741 15.8929 40.848 16.4293C40.2164 16.9658 39.715 17.6683 39.3383 18.5422C38.9617 19.416 38.7364 20.4235 38.668 21.5645C38.5996 22.7056 38.697 23.6842 38.9708 24.4896C39.2446 25.295 39.6679 25.895 40.2406 26.3004C40.8133 26.7059 41.5081 26.8577 42.336 26.7666C42.8521 26.7097 43.33 26.5562 43.7696 26.3006C44.2091 26.0451 44.5945 25.72 44.9202 25.3145L44.9255 25.3037Z" fill="#A4E6FF"/>
<path d="M48.2942 21.0166C48.2942 21.0166 48.3049 21.0166 48.3157 21.0165C48.3157 21.0165 49.8374 23.5737 50.9298 25.4071C51.0059 25.5358 51.1569 25.6048 51.3074 25.5878C52.0977 25.5023 52.5708 25.4456 53.4363 25.3543L54.2373 25.2634C54.3879 25.2463 54.511 25.1434 54.5586 25.0086C54.8125 24.2915 54.9923 23.7793 55.2039 23.1861C55.2515 23.0567 55.3693 22.9592 55.509 22.9422C56.1004 22.8741 57.697 22.6976 58.3852 22.6235C58.5679 22.6009 58.7355 22.7236 58.7795 22.8955C58.9008 23.379 59.011 23.8195 59.1544 24.3944C59.1985 24.5716 59.3768 24.6943 59.565 24.677C60.0165 24.6259 60.3552 24.5915 60.7906 24.5405C61.0165 24.5176 61.1658 24.2961 61.1107 24.0812C60.0325 20.144 59.4549 18.0438 58.3383 13.9831L56.9244 14.1423C56.7901 14.1592 56.683 14.2406 56.6353 14.3592C55.095 18.5167 52.8929 24.443 52.8929 24.443L50.2678 20.0255C50.2678 20.0255 52.432 16.7197 53.9031 14.4726C53.0376 14.5693 52.5753 14.6205 51.7689 14.7115C51.6506 14.7229 51.5434 14.7881 51.4794 14.8854C50.2112 16.8784 48.4047 19.7247 48.4047 19.7247C48.394 19.7248 48.3939 19.7248 48.3832 19.7248L48.6426 15.4782C48.6574 15.2575 48.4627 15.0758 48.2315 15.0987L46.9896 15.2353C46.8122 15.2525 46.6732 15.3986 46.6635 15.5709L46.0365 25.7488C46.0217 25.9695 46.2164 26.1512 46.4476 26.1283L47.6895 25.9917C47.8669 25.9744 48.0058 25.8283 48.0156 25.6561L48.2996 21.022L48.2942 21.0166ZM57.3292 17.0183L57.383 17.0179C57.725 18.4309 57.9183 19.2475 58.2162 20.4724C57.4259 20.5579 56.8614 20.6205 56.0765 20.7113C56.5205 19.4012 56.8219 18.5278 57.3346 17.0182L57.3292 17.0183Z" fill="#A4E6FF"/>
<path d="M63.0052 24.2902L64.4245 24.131C64.5589 24.1141 64.6605 24.0112 64.6651 23.8821L65.1645 15.7279C65.1745 15.5987 65.2814 15.4905 65.4104 15.4789C66.1093 15.3994 66.5501 15.3537 67.249 15.2741C67.3834 15.2572 67.4904 15.1543 67.495 15.0252L67.6222 12.9422L61.2571 13.6479C61.1227 13.6648 61.0211 13.7677 61.0165 13.8968L60.9088 15.6568C60.8991 15.8237 61.0452 15.9627 61.2172 15.9401C61.7655 15.8776 62.1633 15.8375 62.6794 15.7806C62.9429 15.7521 63.1808 15.9605 63.1609 16.2243L62.6808 24.007C62.671 24.1739 62.8171 24.3075 62.9891 24.2903L63.0052 24.2902Z" fill="#A4E6FF"/>
<path d="M70.4302 19.1346C71.3549 19.0322 71.9355 18.9695 72.8333 18.8672C73.0268 18.8445 73.1999 18.9995 73.1849 19.1933L72.9594 22.8263C72.9498 23.0147 73.1175 23.1697 73.3111 23.1524C73.7949 23.1011 74.1497 23.0613 74.6551 23.0044C74.8056 22.9874 74.9286 22.8682 74.9384 22.7175L75.5895 12.066C74.8907 12.1456 74.4982 12.1856 73.8692 12.254C73.7187 12.271 73.5956 12.3901 73.5858 12.5408L73.3554 16.2493C73.3455 16.4 73.2225 16.5191 73.072 16.5361C72.1473 16.6386 71.5667 16.7012 70.669 16.8035C70.4754 16.8262 70.3023 16.6712 70.3173 16.4774L70.5329 12.9843C70.5425 12.796 70.3748 12.641 70.1813 12.6583C69.6974 12.7096 69.3426 12.7494 68.8373 12.8063C68.6868 12.8233 68.5637 12.9424 68.5539 13.0932L67.9221 23.3787C67.9125 23.567 68.0802 23.7221 68.2737 23.7048C68.7576 23.6534 69.1124 23.6136 69.6177 23.5567C69.7683 23.5397 69.8913 23.4206 69.9011 23.2699L70.1361 19.4216C70.1459 19.2708 70.2689 19.1517 70.4195 19.1347L70.4302 19.1346Z" fill="#A4E6FF"/>
<path d="M80.0266 22.5897C80.8115 22.5043 81.5089 22.188 82.1082 21.6517C82.7074 21.1155 83.1927 20.4077 83.5532 19.5339C83.9137 18.6602 84.1336 17.6527 84.2021 16.5224C84.2705 15.3922 84.1732 14.4189 83.9101 13.6135C83.6471 12.808 83.2453 12.2025 82.7049 11.7969C82.1645 11.3912 81.5018 11.2284 80.7116 11.3193C79.932 11.4047 79.24 11.7156 78.6407 12.2465C78.0414 12.7774 77.5561 13.4851 77.2009 14.3589C76.8404 15.2326 76.626 16.24 76.5575 17.3703C76.489 18.4952 76.5809 19.4631 76.8386 20.274C77.0964 21.0848 77.4928 21.6958 78.0386 22.1068C78.5844 22.5178 79.2417 22.6806 80.0212 22.5952L80.0266 22.5897ZM79.2097 14.7072C79.5288 14.108 79.9841 13.7771 80.57 13.709C81.156 13.6463 81.577 13.8805 81.8385 14.4223C82.0946 14.9641 82.1961 15.7383 82.1323 16.7502C82.0685 17.762 81.8743 18.5703 81.5391 19.1803C81.2039 19.7903 80.7487 20.1266 80.1734 20.1892C79.5874 20.252 79.1664 20.0178 78.9157 19.4759C78.6649 18.934 78.5688 18.1544 78.6325 17.1318C78.6963 16.1092 78.8851 15.301 79.2096 14.7018L79.2097 14.7072Z" fill="#A4E6FF"/>
<path d="M90.4326 16.6892C89.4422 14.8174 87.9076 11.916 87.4233 11.0043C87.3308 10.8327 87.1367 10.7477 86.9432 10.7866L86.2716 10.9251C86.0137 10.9751 85.8267 11.1915 85.8068 11.4498L85.1897 21.5039C85.18 21.6815 85.3369 21.8259 85.5197 21.8086C86.0466 21.7516 86.4014 21.7118 87.0142 21.6435L87.401 15.314C88.5601 17.5183 89.2404 18.8054 90.4648 21.1223C90.5192 21.2242 90.6379 21.2827 90.7507 21.2605L91.7662 21.0553C91.9005 21.0276 92.002 20.914 92.0066 20.7848L92.6581 10.1925L91.0776 10.3688C90.9271 10.3859 90.8148 10.5049 90.8049 10.6502L90.4327 16.7053L90.4326 16.6892Z" fill="#A4E6FF"/>
<path d="M99.3579 14.9997C99.0431 14.5335 98.5464 14.2406 97.8732 14.1209C97.3615 14.0218 97.1084 13.9749 96.5968 13.8758C96.2683 13.8293 96.0418 13.7338 95.9279 13.5785C95.814 13.4285 95.7644 13.2352 95.7791 12.9983C95.7987 12.67 95.9208 12.4003 96.1402 12.1999C96.3649 11.9941 96.6815 11.8684 97.0954 11.8229C97.5309 11.7772 97.9238 11.8178 98.2689 11.9395C98.6139 12.0665 98.9218 12.2638 99.1924 12.5419C99.4669 11.6794 99.6042 11.2535 99.8788 10.391C99.6024 10.0537 99.2297 9.80311 98.766 9.63912C98.3024 9.47514 97.8072 9.42433 97.2749 9.48135C96.6244 9.55522 96.0447 9.76856 95.5358 10.1214C95.0269 10.4741 94.6209 10.9339 94.323 11.4899C94.0251 12.0459 93.8514 12.6925 93.8074 13.4138C93.7586 14.2373 93.8862 14.8875 94.2065 15.359C94.5213 15.8306 95.0234 16.1342 95.702 16.2592C96.2137 16.3584 96.4722 16.4052 96.9892 16.499C97.3285 16.5615 97.5496 16.6624 97.6526 16.7855C97.7556 16.914 97.8051 17.0966 97.7905 17.3442C97.776 17.6133 97.6698 17.8507 97.472 18.0563C97.2796 18.2619 96.9469 18.3931 96.4738 18.4444C96.1673 18.4785 95.8606 18.4696 95.5591 18.4176C95.2575 18.3656 94.9718 18.2705 94.7021 18.143C94.4323 18.0155 94.1893 17.8556 93.9729 17.6632C93.6933 18.5688 93.5507 19.0162 93.2711 19.9218C93.6281 20.2532 94.0707 20.4926 94.6043 20.6508C95.1378 20.809 95.7083 20.854 96.3212 20.7857C96.977 20.7118 97.5567 20.5038 98.0496 20.1619C98.5424 19.82 98.9432 19.371 99.2411 18.8096C99.5389 18.2483 99.7126 17.6177 99.7568 16.918C99.8057 16.1053 99.6727 15.4605 99.3579 14.9943L99.3579 14.9997Z" fill="#A4E6FF"/>
<path d="M32.5765 30.5823C31.9562 30.1706 31.2078 30.0176 30.3313 30.1127C29.5893 30.1911 28.8963 30.4361 28.2632 30.8368C27.6301 31.2376 27.0728 31.7725 26.5968 32.4363C26.1154 33.1054 25.7313 33.8817 25.439 34.7653C25.1468 35.6543 24.968 36.6288 24.9024 37.689C24.842 38.6792 24.8994 39.5667 25.0748 40.3515C25.2502 41.1363 25.5381 41.8022 25.9222 42.3387C26.3118 42.8805 26.7868 43.282 27.3473 43.5326C27.9132 43.7885 28.543 43.8774 29.2474 43.8045C29.8604 43.7374 30.4353 43.5682 30.9721 43.2863C31.5035 43.0097 31.9539 42.6527 32.3126 42.2262C32.1383 41.6997 32.0565 41.4364 31.8822 40.9044C31.5287 41.2879 31.1426 41.5962 30.7239 41.8131C30.2999 42.0354 29.8432 42.1718 29.3485 42.2223C28.6333 42.3006 28.0249 42.1686 27.5232 41.8209C27.0215 41.4787 26.6481 40.9422 26.4083 40.2115C26.1686 39.4861 26.0789 38.5988 26.1445 37.544C26.2152 36.4192 26.4263 35.4338 26.7832 34.5876C27.1401 33.7414 27.6107 33.0616 28.2004 32.5588C28.7901 32.056 29.4667 31.7627 30.2356 31.6788C30.9239 31.606 31.4945 31.7005 31.9529 31.973C32.4112 32.2455 32.7466 32.6853 32.9589 33.2924C33.1712 33.8994 33.2443 34.6685 33.1836 35.5942C33.1483 36.1592 33.075 36.6599 32.9692 37.0908C32.8634 37.5216 32.7303 37.8665 32.57 38.12C32.4097 38.3736 32.2381 38.5088 32.0606 38.531C31.9047 38.5478 31.7915 38.4945 31.7319 38.3764C31.6668 38.2529 31.6444 38.0431 31.6647 37.7471C31.675 37.6234 31.6905 37.4834 31.706 37.3219C31.7268 37.1604 31.7583 36.9774 31.8005 36.7674C32.0531 35.3944 32.1793 34.7052 32.4319 33.3322C31.8941 33.3882 31.6253 33.4216 31.0876 33.4776C31.019 33.8115 30.9662 34.0484 30.9135 34.3015C30.8372 34.0759 30.745 33.8879 30.6207 33.754C30.4045 33.5074 30.1028 33.401 29.7265 33.4456C29.2802 33.4959 28.8776 33.7073 28.5187 34.0747C28.1598 34.4474 27.8605 34.9382 27.6264 35.5472C27.3922 36.1561 27.2497 36.8346 27.2044 37.5773C27.1437 38.5029 27.2596 39.2234 27.5522 39.7279C27.8448 40.2324 28.2922 40.4566 28.889 40.3895C29.3031 40.3448 29.6894 40.1065 30.0481 39.6746C30.214 39.4748 30.3689 39.2213 30.5022 38.9356C30.568 39.2366 30.6713 39.4837 30.8173 39.6768C31.0607 39.9878 31.4055 40.1209 31.8572 40.0706C32.282 40.0258 32.6631 39.809 33.0111 39.4202C33.3592 39.0368 33.6421 38.503 33.8652 37.8241C34.083 37.1453 34.225 36.3646 34.2806 35.4928C34.3564 34.3088 34.2392 33.2924 33.9399 32.4598C33.6406 31.6217 33.1754 30.9995 32.5604 30.5877L32.5765 30.5823ZM29.9082 38.3731C29.7369 38.589 29.5384 38.7082 29.3126 38.7307C29.0706 38.7586 28.8927 38.6571 28.7788 38.437C28.6649 38.2169 28.6204 37.8727 28.6508 37.4045C28.6811 36.9363 28.7495 36.554 28.8664 36.22C28.978 35.8859 29.1275 35.6163 29.3096 35.4111C29.4916 35.2059 29.6956 35.0921 29.9214 35.0696C30.1634 35.0417 30.3413 35.1271 30.4443 35.3257C30.5474 35.5243 30.5862 35.8201 30.5663 36.2129C30.536 36.6973 30.4625 37.128 30.3457 37.4943C30.2289 37.8661 30.0848 38.1572 29.9136 38.3731L29.9082 38.3731Z" fill="#A4E6FF"/>
<path d="M41.7393 34.7518C42.0665 34.5353 42.3612 34.2596 42.5856 33.8875C42.8741 33.4075 43.0386 32.8526 43.079 32.223C43.1346 31.3565 42.949 30.6955 42.5275 30.2346C42.106 29.7736 41.4758 29.5879 40.637 29.6774C39.3089 29.8228 38.5776 29.9012 37.3624 30.0353C37.1258 30.0632 36.9436 30.2469 36.9285 30.4783L36.2971 40.4181C36.2768 40.7141 36.5414 40.9552 36.8425 40.9216C37.9986 40.7985 38.7406 40.7147 40.0526 40.5748C40.8968 40.4852 41.5839 40.1327 42.1086 39.5279C42.6333 38.9232 42.926 38.1418 42.9866 37.1839C43.032 36.452 42.922 35.8768 42.662 35.4528C42.4454 35.104 42.1325 34.8793 41.7393 34.7572L41.7393 34.7518ZM38.7259 31.9558C39.2905 31.8943 39.5755 31.8608 40.1455 31.7993C40.5165 31.7601 40.7911 31.8181 40.9585 31.9788C41.126 32.1396 41.197 32.4137 41.1717 32.7904C41.1463 33.1671 41.04 33.4635 40.8525 33.6687C40.6597 33.8739 40.3805 33.9988 40.0095 34.038C39.4449 34.0995 39.1599 34.133 38.5899 34.1945L38.7313 31.9504L38.7259 31.9558ZM40.7849 38.1345C40.5921 38.3452 40.3075 38.4701 39.9365 38.5093C39.2859 38.5819 38.9578 38.6155 38.3018 38.6882L38.4533 36.2772C39.1039 36.2046 39.4319 36.171 40.0879 36.0983C40.4589 36.0591 40.7336 36.1279 40.9011 36.2994C41.0686 36.4763 41.1397 36.7773 41.1146 37.197C41.0894 37.6168 40.9777 37.9239 40.7849 38.1292L40.7849 38.1345Z" fill="#A4E6FF"/>
<path d="M44.4564 40.0886C46.0856 39.9097 47.1234 39.7978 48.7473 39.6243C49.0861 39.5852 49.3485 39.3205 49.3687 38.9922L49.4696 37.367C48.0554 37.5181 47.351 37.5963 45.9369 37.7528L46.0782 35.5087C47.1805 35.3911 47.8204 35.3185 48.7775 35.2177C49.1109 35.1841 49.368 34.9194 49.3882 34.5965L49.4944 32.9605C48.1824 33.1004 47.5318 33.173 46.2198 33.3183L46.351 31.2303C47.5663 31.0961 48.2599 31.0233 49.3299 30.9059C49.6526 30.8723 49.899 30.6184 49.9192 30.3063L50.0254 28.6649C47.9875 28.8885 46.9067 29.0059 44.9871 29.2129C44.7612 29.2354 44.5844 29.4137 44.5692 29.6343L43.938 39.6172C43.9176 39.8971 44.1714 40.1274 44.4618 40.0993L44.4564 40.0886Z" fill="#A4E6FF"/>
<path d="M55.8176 34.7419C55.7258 34.6508 55.6233 34.5867 55.5155 34.5387C55.6228 34.4791 55.741 34.4355 55.8375 34.3598C56.2612 34.0406 56.593 33.6196 56.8382 33.086C57.0835 32.5523 57.2262 31.933 57.2717 31.2334C57.3373 30.1839 57.1564 29.3777 56.7184 28.8253C56.2858 28.2729 55.6285 28.0443 54.7575 28.1394C53.3702 28.2904 52.655 28.3686 51.3107 28.5141C51.2408 28.5197 51.1765 28.5792 51.1714 28.6491L50.4998 39.2617C50.4948 39.3532 50.5812 39.4228 50.6726 39.417C51.3071 39.3499 51.6942 39.3052 52.3449 39.238C52.4148 39.2323 52.4791 39.1729 52.4842 39.1029L52.7315 35.1582C52.9573 35.1357 53.0702 35.1191 53.3014 35.0966C53.4896 35.0743 53.6565 35.0952 53.8074 35.1645C53.9583 35.2284 54.0611 35.3786 54.1212 35.6044C54.4648 36.7435 54.9557 38.3717 55.092 38.8177C55.1138 38.8876 55.184 38.9303 55.2592 38.9193C55.9851 38.8409 56.4153 38.7961 57.1251 38.7179C57.2165 38.7067 57.2807 38.6096 57.2534 38.5236C56.91 37.4436 56.7247 36.8472 56.3649 35.7135C56.2287 35.289 56.0444 34.9615 55.8176 34.7419ZM54.0997 32.9897C53.5996 33.0455 53.3523 33.0734 52.8522 33.1239L53.0086 30.6161C53.0083 30.5462 53.0726 30.4867 53.1479 30.481C53.5619 30.4363 53.8093 30.4083 54.2609 30.3581C54.6481 30.3134 54.9335 30.3929 55.1172 30.5859C55.3009 30.7788 55.3776 31.1013 55.3525 31.5426C55.3274 31.9839 55.2051 32.3287 54.9963 32.5663C54.7875 32.8039 54.4868 32.945 54.0996 32.9843L54.0997 32.9897Z" fill="#A4E6FF"/>
<path d="M66.1676 26.9035C65.2857 26.9986 64.8179 27.0489 63.9845 27.1385C63.8985 27.1496 63.8126 27.193 63.7698 27.2685C62.4977 29.259 60.6591 32.1397 60.6591 32.1397C60.6483 32.1397 60.6483 32.1397 60.6376 32.1398L60.9102 27.8076C60.9202 27.63 60.7636 27.4907 60.5862 27.5076C60.0807 27.5635 59.7205 27.6026 59.1935 27.6586C59.0537 27.6753 58.9412 27.7834 58.931 27.9233L58.2743 38.2561C58.2643 38.4337 58.4209 38.5729 58.5984 38.556C59.1038 38.5001 59.464 38.461 59.991 38.405C60.1308 38.3883 60.2433 38.2802 60.2535 38.1403L60.5515 33.4421C60.5515 33.4421 60.5622 33.4421 60.573 33.442C60.573 33.442 62.117 36.0505 63.2058 37.8914C63.2654 37.988 63.3786 38.0413 63.4915 38.0247C64.169 37.952 64.6099 37.9017 65.239 37.8346C65.4488 37.8122 65.5608 37.5857 65.4579 37.4086C64.3473 35.5355 63.6702 34.3923 62.6138 32.6051C62.5596 32.5138 62.5645 32.3901 62.6233 32.3037C63.9277 30.3238 64.7296 29.0992 66.173 26.9088L66.1676 26.9035Z" fill="#A4E6FF"/>
<path d="M66.5023 37.6946C68.1692 37.5156 69.2124 37.3983 70.9223 37.2137C71.1643 37.1858 71.3571 36.9967 71.3723 36.7599L71.4833 34.9732C70.0691 35.1243 69.3647 35.2025 67.9505 35.359L68.0919 33.1149L70.7482 32.8241C71.1084 32.785 71.3816 32.5041 71.4071 32.1543L71.5081 30.5613C70.1961 30.7012 69.5454 30.7739 68.2334 30.9192L68.3647 28.8311C69.6283 28.6914 70.3273 28.6185 71.478 28.49C71.72 28.4621 71.9075 28.2731 71.9226 28.0363L72.0337 26.2603C70.0065 26.4785 68.9257 26.596 67.0276 26.8029C66.7856 26.8308 66.5927 27.0199 66.5776 27.2567L65.9515 37.175C65.9312 37.4764 66.1958 37.7174 66.5023 37.6839L66.5023 37.6946Z" fill="#A4E6FF"/>
<path d="M75.1739 25.9245C74.5179 25.9971 74.1307 26.0364 73.5715 26.0979C73.351 26.1203 73.1796 26.2985 73.1644 26.5138L72.5332 36.5129C72.5182 36.7927 72.7612 37.0177 73.0462 36.9842C74.6701 36.8054 75.681 36.699 77.3425 36.5199C77.563 36.4975 77.7398 36.3192 77.755 36.1039L77.8813 34.1127C76.5854 34.2526 75.9348 34.3252 74.6389 34.4651L75.1793 25.9298L75.1739 25.9245Z" fill="#A4E6FF"/>
<path d="M79.4183 36.2908C81.0744 36.1118 82.1176 35.9998 83.8167 35.8153C84.0641 35.7874 84.2569 35.5929 84.2721 35.3507L84.3831 33.5694C82.9689 33.7205 82.2645 33.7987 80.8503 33.9552L80.9917 31.7111C82.1531 31.5825 82.7984 31.5153 83.8416 31.4034C84.0889 31.3755 84.2817 31.181 84.2969 30.9442L84.4079 29.1629C83.0959 29.3028 82.4453 29.3754 81.1333 29.5207L81.2645 27.4327C82.5066 27.2984 83.2056 27.2202 84.3187 27.1026C84.5929 27.0746 84.8072 26.8531 84.8276 26.584L84.9389 24.8673C82.9171 25.0854 81.8309 25.2029 79.9382 25.4098C79.6908 25.4377 79.498 25.6322 79.4828 25.8744L78.8567 35.7712C78.8364 36.078 79.1118 36.3297 79.4237 36.2961L79.4183 36.2908Z" fill="#A4E6FF"/>
<path d="M90.6384 24.3596C89.8703 25.9553 89.4329 26.8664 88.7075 28.3705C88.153 26.9685 87.8214 26.1306 87.2234 24.6104C86.433 24.6944 85.9813 24.7447 85.2769 24.8229C85.1102 24.8398 85.0141 25.0123 85.0739 25.1627C86.0463 27.4561 86.6167 28.8095 87.5348 30.9686L87.2723 35.1501C87.2622 35.3008 87.3972 35.424 87.5531 35.4072C88.0908 35.3512 88.4565 35.3066 89.0157 35.2505C89.134 35.2393 89.2358 35.142 89.2407 35.0236L89.5082 30.7721C90.7621 28.2705 91.5251 26.7501 92.9017 24.0005C92.0682 24.0901 91.6327 24.1403 90.8422 24.2243C90.7562 24.2354 90.6757 24.2895 90.6384 24.365L90.6384 24.3596Z" fill="#A4E6FF"/>
<path d="M12.318 8.29811C12.2798 8.2015 12.2469 8.11023 12.2141 8.01359C12.1977 7.97602 12.1977 7.97064 12.1438 7.96021C10.5494 7.61475 9.09085 7.49982 7.6928 7.60511C6.87546 7.66386 6.03723 7.82495 5.14044 8.08863C5.09267 8.19652 5.05032 8.30976 5.00797 8.42301C7.23692 7.83384 9.58752 7.79273 12.318 8.29811Z" fill="#A4E6FF"/>
<path d="M11.24 11.5273C11.2131 11.5221 11.1807 11.5169 11.1538 11.5117C11.344 12.7211 11.5343 13.9359 11.7245 15.1507C11.9348 15.2355 12.1289 15.3043 12.291 15.4271C12.6261 15.6833 13.0038 15.8586 13.3921 16.0284C14.1095 16.3469 14.6891 17.0105 14.9896 17.7673C14.8784 17.1654 14.7561 16.5259 14.6124 15.8919C14.4246 15.0698 14.2152 14.2533 14.0113 13.4367C13.9066 13.0338 13.8073 12.6255 13.708 12.2226C13.697 12.1743 13.6916 12.1743 13.6593 12.1637C13.2875 12.0691 12.9211 11.9691 12.5493 11.8691C12.1128 11.7534 11.6818 11.6377 11.2454 11.5273L11.24 11.5273Z" fill="#A4E6FF"/>
<path d="M14.4164 20.7838C14.3389 21.3277 14.1555 22.1197 13.4864 22.6779C13.299 22.8351 13.0846 22.9655 12.8809 23.0851C12.8327 23.1123 12.7845 23.1448 12.7362 23.172C12.8707 24.0644 12.9948 25.0159 12.9953 25.979C13.3249 26.2245 13.5259 26.5407 13.5928 26.9331C13.6875 27.4705 13.4634 27.7785 13.2546 27.9466C12.9281 28.2068 12.5409 28.2253 12.1576 28.0017C11.7095 27.7407 11.4595 27.3333 11.4349 26.8116C11.4161 26.3813 11.6184 26.0303 11.9727 25.8991C12.0264 25.8772 12.0424 25.861 12.0424 25.861C12.0477 25.8448 12.0418 25.7642 12.0416 25.7319L12.0012 25.2694C11.9777 24.9467 11.9488 24.6241 11.9146 24.3015C11.8861 24.038 11.8469 23.7746 11.8076 23.5112L11.7797 23.3339C11.7797 23.3339 11.7527 23.334 11.7366 23.3341C11.5697 23.319 11.4191 23.3091 11.2682 23.2778C10.4658 23.132 9.77996 22.6949 9.16754 21.9454C8.53341 21.1637 8.15664 20.2406 8.04816 19.2028C7.96259 18.3963 8.03905 17.6964 8.29883 17.0653C8.66454 16.1593 9.25258 15.5423 10.0469 15.2309C10.2562 15.1489 10.4711 15.1046 10.6806 15.0602C10.7021 15.0601 10.729 15.0492 10.7505 15.0437L10.1636 11.3994C10.029 11.3895 9.89987 11.3795 9.77073 11.3749L9.45321 11.3553C8.95811 11.326 8.46311 11.3128 7.9685 11.3642C7.83946 11.3758 7.71582 11.3873 7.58675 11.3935L7.47242 12.0613C7.41008 12.4275 7.3424 12.7992 7.28544 13.1654L7.15071 14.0163C6.96932 15.158 6.78797 16.3051 6.6281 17.4467C6.49413 18.4213 6.39258 19.4173 6.29619 20.3809L6.29664 20.4563C6.1998 21.3446 6.11929 22.2651 6.03924 23.2609C5.95442 24.359 5.90033 25.2041 5.86208 25.9952C5.82366 26.7594 5.79635 27.5774 5.80126 28.3898C5.80793 29.4927 5.84696 30.6116 5.8804 31.6928L5.89409 32.1769C5.90736 32.5911 5.94211 33.0052 5.97718 33.4677C6.0117 33.8387 6.04622 34.2098 6.08077 34.5862C6.1152 34.9411 6.14964 35.296 6.17868 35.6509C6.17868 35.6509 6.17875 35.6617 6.17878 35.667C6.18416 35.667 6.19491 35.6669 6.20029 35.6669C6.4851 35.6168 6.74308 35.5775 7.00657 35.5598C7.47983 35.5354 7.9477 35.5111 8.42099 35.4921L9.05562 35.4667C9.06511 35.2568 9.0746 35.0469 9.08409 34.837C9.11787 34.1966 9.14627 33.5508 9.15853 32.9105C9.16646 32.4423 9.15277 31.9582 9.13918 31.4902C9.13214 31.2158 9.12505 30.9361 9.11802 30.6617C9.11769 30.6079 9.11768 30.6026 9.07449 30.5759C8.62073 30.2666 8.4082 29.816 8.4533 29.2669C8.49357 28.8093 8.8519 28.4628 9.32512 28.4331C9.89511 28.3919 10.4629 28.8835 10.5851 29.5176C10.685 30.0282 10.5206 30.4112 10.0757 30.6829C10.0826 30.9357 10.0949 31.1939 10.1018 31.4467C10.1147 31.7963 10.1276 32.146 10.1351 32.4956C10.1372 32.8454 10.1232 33.1952 10.1091 33.5342C10.0949 33.8625 10.0754 34.1962 10.0559 34.5245L10.0125 35.3587C10.0128 35.4017 10.013 35.4394 10.0133 35.4824C10.6324 35.5594 11.2407 35.631 11.8705 35.7026L11.989 35.718L11.9885 35.6427C11.9919 35.3091 12.0007 34.9808 12.0095 34.6526C11.502 34.3543 11.2241 33.775 11.3015 33.2203C11.3687 32.7733 11.7165 32.4646 12.1844 32.4348C12.8244 32.4095 13.3767 33.0141 13.434 33.5948C13.4854 34.0787 13.3315 34.4348 12.9778 34.6575C12.9637 34.9965 12.9604 35.3355 12.9516 35.6691L12.953 35.9005L15.2382 36.5969C15.2591 36.4945 15.28 36.3868 15.2954 36.2791L15.3881 35.5845C15.5013 34.7391 15.6092 33.8937 15.7063 33.0484C15.7982 32.2408 15.8472 31.4442 15.8812 30.8415C15.9199 30.1203 15.9428 29.453 15.9442 28.7966C15.945 28.0433 15.9348 27.2525 15.8976 26.4349C15.8716 25.6872 15.8294 24.945 15.7873 24.1974L15.7634 23.8048C15.7396 23.4229 15.7157 23.0464 15.6758 22.67C15.6074 22.0248 15.5281 21.3743 15.4382 20.7346C15.3651 20.2131 15.2863 19.6433 15.1968 19.0628C15.1973 19.1489 15.1816 19.2297 15.1713 19.3104C15.0833 19.8759 14.8706 20.2915 14.5174 20.5841C14.4478 20.6437 14.4212 20.6923 14.4057 20.8054L14.4164 20.7838Z" fill="#A4E6FF"/>
<path d="M11.7555 6.89178C11.269 5.61422 9.4171 1.84308 8.64539 0.551094C7.4427 2.71586 6.43871 4.82561 5.58554 6.96674C7.45483 6.5035 9.43977 6.48074 11.7608 6.89175L11.7555 6.89178Z" fill="#A4E6FF"/>
<path d="M13.0562 20.0226C13.3741 20.1067 13.675 20.0565 13.8946 19.8884C14.1355 19.704 14.2682 19.4019 14.2768 19.036C14.2875 18.1374 13.9012 17.4295 13.1236 16.9339C12.886 16.7847 12.6542 16.7054 12.4336 16.7067C12.3045 16.7075 12.181 16.7351 12.0575 16.7843C11.6605 16.9589 11.4849 17.2827 11.4565 17.9124C11.5092 18.6223 11.814 19.2123 12.3492 19.6448C12.5708 19.821 12.8191 19.9541 13.0508 20.0172L13.0562 20.0226Z" fill="#A4E6FF"/>
<path d="M10.5426 18.0901C10.4525 18.322 10.438 18.5857 10.4936 18.8867C10.6711 19.7733 11.1212 20.3624 11.8762 20.6807C12.0758 20.7656 12.2535 20.7968 12.4202 20.785C11.9024 20.5568 11.4644 20.1882 11.1224 19.6738C10.7804 19.1647 10.5835 18.6332 10.5426 18.0847L10.5426 18.0901Z" fill="#A4E6FF"/>
<path d="M10.9498 16.0054C10.4388 16.0085 9.98836 16.2533 9.58784 16.7399C9.13391 17.2915 8.94428 17.9598 8.99268 18.8472C9.03509 19.6325 9.23823 20.3092 9.62384 20.9148C10.1778 21.7884 10.7614 22.2261 11.5206 22.3345C12.2744 22.4429 12.875 22.1326 13.1994 21.5066C13.0976 21.5663 12.9849 21.6155 12.8667 21.6484C12.2492 21.8244 11.6082 21.6937 11.0194 21.283C9.94969 20.5362 9.46473 19.5115 9.56999 18.2358C9.6201 17.6275 9.89688 17.1362 10.3737 16.8051C10.4808 16.7292 10.5934 16.6639 10.7006 16.5987C10.797 16.5389 10.8989 16.4845 10.9953 16.4194C11.081 16.3597 11.156 16.2947 11.2363 16.2296C11.3005 16.1754 11.3701 16.1212 11.4344 16.0724C11.3966 16.0618 11.3589 16.0513 11.3266 16.0408C11.1973 16.0146 11.0735 16.0046 10.9552 16.0053L10.9498 16.0054Z" fill="#A4E6FF"/>
<path d="M4.64429 43.413C4.09207 41.9421 3.65803 40.4437 3.34788 38.9713C3.29806 38.7403 3.25363 38.5092 3.2092 38.2781C3.00132 38.5968 2.80408 38.8939 2.64461 39.2123C2.24069 40.0272 1.87996 40.8687 1.57767 41.5861C1.14815 42.6163 0.702895 43.7166 0.430128 44.8696C0.309525 45.3869 0.205022 45.8932 0.331739 46.3875C0.613078 47.5425 0.985053 48.5625 1.45872 49.4958C2.09565 50.7402 2.95789 51.881 4.09957 52.9717L4.08847 52.9179L3.53706 49.8007C3.47587 49.4675 3.57644 49.1979 3.82275 49.0081C4.18151 48.7315 4.53485 48.4496 4.8882 48.1677C5.31118 47.8369 5.72881 47.5062 6.1518 47.1755L6.17321 47.1592C6.22139 47.1212 6.26958 47.0833 6.30169 47.0562C6.28532 47.0186 6.25268 46.9596 6.22546 46.906C5.57233 45.651 5.05437 44.5081 4.63888 43.4076L4.64429 43.413Z" fill="#A4E6FF"/>
<path d="M15.862 40.1169C15.1156 43.0214 13.7752 45.5367 12.6356 47.459L12.7275 47.5392C12.8951 47.6834 13.0574 47.8223 13.2249 47.9558L13.7169 48.3617C13.9062 48.5166 14.09 48.6715 14.2792 48.8264C14.4793 48.9974 14.556 49.2229 14.4876 49.4816C14.456 49.5947 14.4406 49.7186 14.4252 49.837C14.4148 49.9017 14.4098 49.9663 14.3995 50.0309L14.2956 50.6502C14.223 51.1026 14.1505 51.555 14.0779 52.0074C14.0365 52.2713 14.0004 52.5405 13.9643 52.8044C14.2584 52.5013 14.547 52.1929 14.8248 51.8737C15.4499 51.1598 15.999 50.3333 16.4669 49.4158C16.8816 48.6062 17.2202 47.668 17.5411 46.4663C17.6569 46.0352 17.7136 45.6367 17.7114 45.2816C17.7076 44.6521 17.521 44.0291 17.3568 43.562C16.9134 42.295 16.3466 41.0932 15.862 40.1277L15.862 40.1169Z" fill="#A4E6FF"/>
<path d="M13.1548 10.558L13.0837 10.3594C12.9852 10.0909 12.8867 9.82253 12.8044 9.54863C12.7551 9.39828 12.701 9.35019 12.5394 9.3135C11.4675 9.08863 10.4069 8.95515 9.37378 8.91298C9.06168 8.89872 8.77654 8.89506 8.5022 8.89672C7.74371 8.90131 7.10926 8.95895 6.51287 9.08092C5.97017 9.18642 5.42231 9.32962 4.89053 9.46196L4.61664 9.53356C4.46819 9.89494 4.34659 10.2508 4.23043 10.612C7.23228 9.73296 10.164 9.71524 13.1548 10.558Z" fill="#A4E6FF"/>
<path d="M13.7975 42.1525C13.9192 41.8181 14.0353 41.4516 14.1669 40.9612C14.2985 40.4815 14.4247 40.0019 14.5563 39.5223C14.6983 38.9996 14.835 38.4768 14.9772 37.9595C12.9498 37.1862 10.8871 36.8059 8.8107 36.8185L8.59552 36.8198L8.59535 36.7929C8.41793 36.8101 8.24052 36.8273 8.06306 36.8391C7.49315 36.891 6.90708 36.943 6.34277 37.0325C5.81073 37.1218 5.27892 37.2487 4.75787 37.3756C4.52688 37.4308 4.29593 37.4914 4.05953 37.5412C4.1039 37.7616 4.14288 37.9765 4.1818 38.1861C4.28732 38.7343 4.39293 39.2986 4.54142 39.8357C4.84392 40.9315 5.18952 42.0377 5.56726 43.1222C5.9395 44.1853 6.45193 45.3013 7.17548 46.6366L7.25074 46.6254C7.61086 46.5748 7.97632 46.5188 8.3474 46.5004C8.49261 46.4941 8.63782 46.4879 8.78306 46.487C9.68141 46.4816 10.543 46.6162 11.3569 46.8857C11.4314 46.7561 11.506 46.6266 11.5859 46.497C11.703 46.2972 11.8202 46.1028 11.9266 45.8977C12.4158 44.9586 12.8942 44.0141 13.3727 43.0697C13.5162 42.7837 13.665 42.4707 13.7867 42.1471L13.7975 42.1525Z" fill="#A4E6FF"/>
<path d="M4.85498 26.663C4.85439 26.5662 4.85916 26.4693 4.86396 26.3724C4.86879 26.2809 4.87365 26.1948 4.8731 26.1034C4.87174 25.8774 4.87037 25.6514 4.86897 25.4201C4.81524 25.4312 4.76149 25.4369 4.71318 25.4533C4.17077 25.6072 3.63374 25.7611 3.09682 25.9312C3.09854 26.2163 3.08404 26.4908 3.08564 26.7544C3.11756 28.4759 3.14949 30.1974 3.19218 31.9188C3.1999 32.3062 3.24 32.7094 3.27459 33.0912L3.27494 33.1504C3.33812 33.8118 3.40666 34.4732 3.48059 35.1345C3.51479 35.4517 3.55434 35.7635 3.5993 36.0807L3.62184 36.2527L4.02468 36.1481C4.41678 36.0489 4.81424 35.9442 5.20635 35.845C5.17767 35.5493 5.15443 35.2643 5.13653 34.9738L5.07853 34.2801C5.03778 33.7693 4.99703 33.2584 4.96166 32.7475L4.94372 32.4463C4.89594 31.661 4.848 30.8489 4.83239 30.0473C4.81662 29.2189 4.82226 28.3741 4.83345 27.5563L4.84421 26.6631L4.85498 26.663Z" fill="#A4E6FF"/>
<path d="M1.76236 30.2811L1.79753 30.7597C1.83879 31.3567 1.88549 31.959 1.93214 32.5559C1.95544 32.8517 1.98411 33.1474 2.02356 33.4431C2.09684 33.9968 2.17014 34.5559 2.25418 35.1096C2.31582 35.5181 2.38287 35.9266 2.45534 36.3458L2.50001 36.62C2.56978 36.5926 2.63958 36.5707 2.70401 36.5488L2.61914 35.8552C2.53993 35.2101 2.4607 34.5649 2.39221 33.9143C2.32376 33.2691 2.27116 32.5754 2.22308 31.7417C2.17494 30.8973 2.13833 30.182 2.13398 29.461C2.129 28.6379 2.12936 27.8093 2.14052 26.9861L2.14991 25.8669C2.14962 25.8185 2.14929 25.7647 2.149 25.7163C2.1312 25.442 2.27509 25.2205 2.5274 25.1329L2.89248 25.007C3.26825 24.8756 3.66008 24.7333 4.05213 24.6233C4.30988 24.5464 4.56785 24.5018 4.84193 24.4571C4.90104 24.446 4.96013 24.4349 5.01923 24.4238C5.21644 20.5596 5.71874 16.4406 6.59268 11.507C6.47443 11.5238 6.37233 11.5406 6.26484 11.5574C5.42654 11.7077 4.59948 11.9387 3.81053 12.2448C3.80516 12.2448 3.77848 12.2826 3.77317 12.2934C3.60483 12.9239 3.44727 13.5544 3.29511 14.1902C3.24258 14.4003 3.19539 14.605 3.14828 14.8205C3.17514 14.815 3.19663 14.8095 3.2235 14.8039C3.35785 14.7816 3.42754 14.7435 3.50709 14.5547C3.63962 14.2311 3.89653 14.0144 4.20821 13.9587C4.52526 13.9029 4.84878 14.0247 5.09248 14.2923C5.32535 14.5491 5.44589 14.9089 5.41589 15.2857C5.38583 15.6517 5.22105 15.9809 4.95339 16.1977C4.60007 16.485 4.0889 16.4666 3.7696 16.1511C3.68301 16.0655 3.61783 15.9637 3.56349 15.8726C3.53633 15.8297 3.50916 15.7868 3.48204 15.7493C3.28339 15.8151 3.09021 15.8916 2.90239 15.968C2.90239 15.968 2.90245 15.9788 2.90249 15.9842C2.82407 16.3613 2.75108 16.7437 2.67807 17.1261C2.65727 17.2446 2.63647 17.3631 2.61035 17.4924C2.62649 17.4923 2.64261 17.4922 2.65871 17.4867C2.82534 17.4642 2.89495 17.41 2.95849 17.2428C3.12281 16.8383 3.47654 16.6209 3.92326 16.6559C4.28387 16.686 4.5541 16.8888 4.72849 17.259C4.94108 17.7204 4.91696 18.1833 4.65594 18.6099C4.4748 18.9015 4.21219 19.0645 3.88946 19.0719C3.42684 19.0747 3.07576 18.84 2.92257 18.4159C2.84742 18.4433 2.78832 18.4598 2.72925 18.4763C2.63796 18.5037 2.54129 18.5312 2.45548 18.5748C2.45013 18.5802 2.42885 18.618 2.42356 18.6342C2.37658 18.8712 2.34579 19.1135 2.31498 19.3558L2.212 20.1204C2.12967 20.7396 2.0473 21.3535 1.98111 21.9726C1.90993 22.6563 1.84971 23.3723 1.80067 24.1581C1.75169 24.9547 1.70282 25.7728 1.70235 26.5852C1.70218 27.446 1.71278 28.3068 1.73412 29.1675L1.757 30.2865L1.76236 30.2811Z" fill="#A4E6FF"/>
<path d="M8.98808 18.8473C9.03048 19.6325 9.23363 20.3092 9.61924 20.9149C9.77003 21.1527 9.92301 21.3581 10.0811 21.5335L9.19819 17.3859C9.02829 17.8012 8.96055 18.2794 8.98808 18.8473Z" fill="#CBE7F0"/>
<path d="M10.6959 16.5988C10.7978 16.5443 10.8943 16.4846 10.9907 16.4194C11.0562 16.3738 11.1154 16.3251 11.1755 16.2757L11.1759 16.2754C11.1943 16.2602 11.2128 16.2449 11.2317 16.2297L11.2263 16.2297C11.2905 16.1755 11.3547 16.1213 11.4244 16.0725C11.3866 16.0566 11.3543 16.046 11.3166 16.0408C11.1873 16.0147 11.0635 16.0047 10.9452 16.0054C10.4341 16.0085 9.98372 16.248 9.58323 16.74C9.42173 16.9386 9.29379 17.1523 9.19819 17.3859L10.0811 21.5335C10.504 22.0024 10.9635 22.2557 11.516 22.3346C12.2698 22.443 12.8705 22.1327 13.1948 21.5066C13.0876 21.5664 12.9803 21.6155 12.8621 21.6485C12.2446 21.8244 11.6036 21.6938 11.0148 21.2831C9.94505 20.5309 9.45471 19.5062 9.56538 18.2358C9.6155 17.6275 9.89765 17.1362 10.3691 16.8052C10.4708 16.7293 10.5834 16.664 10.6959 16.5988Z" fill="#CBE7F0"/>
<path d="M4.95491 32.4407L4.97285 32.7419C5.00284 33.2529 5.04359 33.7637 5.08972 34.2746L5.14769 34.9683L5.17092 35.257C5.18644 35.4496 5.20196 35.6421 5.21751 35.8395C4.82002 35.9387 4.42794 36.0379 4.03587 36.1425L3.63303 36.2472L3.61045 36.0752C3.59677 35.9655 3.58245 35.8564 3.56815 35.7476C3.54111 35.5417 3.51415 35.3365 3.49178 35.1289C3.41785 34.4676 3.35466 33.8062 3.29149 33.1448L3.29113 33.0857C3.25113 32.6985 3.21647 32.3006 3.20337 31.9133C3.16068 30.1919 3.12337 28.4704 3.09683 26.7489C3.09583 26.5832 3.0992 26.411 3.10271 26.232C3.10467 26.132 3.10667 26.0298 3.10797 25.9256C3.6449 25.7556 4.18193 25.6017 4.72433 25.4478C4.7613 25.4364 4.79576 25.4302 4.83118 25.4238C4.84721 25.4209 4.86343 25.418 4.88016 25.4145L4.88429 26.0978C4.88482 26.1843 4.88049 26.266 4.87594 26.352L4.87515 26.3669L4.87512 26.3674C4.87034 26.4641 4.86555 26.5608 4.86614 26.6575L4.85541 27.5507C4.84419 28.3631 4.83852 29.2079 4.85432 30.0417C4.86992 30.8433 4.91786 31.6554 4.96565 32.4407L4.95491 32.4407Z" fill="#CBE7F0"/>
<path d="M5.1412 8.08308C6.04337 7.81937 6.87626 7.66369 7.69357 7.59957C9.09161 7.49427 10.5502 7.61458 12.1446 7.95466C12.196 7.96463 12.1984 7.96999 12.2128 8.00322L12.2148 8.00804C12.2477 8.10468 12.2805 8.19595 12.3188 8.29256C9.58291 7.78722 7.23765 7.82291 5.00873 8.41746C5.03613 8.34067 5.0658 8.26838 5.09482 8.19768C5.11063 8.15917 5.12625 8.12112 5.1412 8.08308Z" fill="#CBE7F0"/>
<path d="M4.61743 9.53892L4.89133 9.46732C5.42307 9.3296 5.97096 9.19178 6.51366 9.08628C7.11009 8.96968 7.7445 8.90667 8.50299 8.90208C8.77734 8.90042 9.06785 8.90405 9.37457 8.91833C10.4023 8.96054 11.4683 9.09399 12.5402 9.31886C12.7018 9.35554 12.7558 9.39826 12.8052 9.55399C12.8875 9.82789 12.986 10.0963 13.0845 10.3647L13.1556 10.5634C10.1648 9.7206 7.23308 9.73832 4.23122 10.6173C4.34742 10.2615 4.46902 9.90568 4.61743 9.53892Z" fill="#72C8E3"/>
<path d="M11.374 46.891C10.56 46.6215 9.69313 46.4869 8.80016 46.4923C8.65491 46.4932 8.50967 46.494 8.36449 46.5057C8.02217 46.5226 7.68002 46.5717 7.35054 46.6189L7.2678 46.6307L7.19258 46.6419C6.46903 45.3066 5.95656 44.1852 5.58436 43.1275C5.20123 42.043 4.86102 40.9368 4.55852 39.841C4.41872 39.3353 4.31691 38.8056 4.21742 38.2879L4.19886 38.1914C4.15991 37.9765 4.121 37.7669 4.07663 37.5465C4.19116 37.5192 4.30701 37.4918 4.42287 37.4644L4.4258 37.4637L4.4288 37.463C4.54464 37.4356 4.66046 37.4083 4.77496 37.3809L4.86129 37.3599C5.35469 37.2396 5.85715 37.117 6.35986 37.0377C6.92414 36.9429 7.51555 36.8909 8.08013 36.8444C8.16884 36.8358 8.25756 36.8286 8.34629 36.8213C8.43501 36.814 8.52374 36.8068 8.61245 36.7982L8.61261 36.8251L8.82777 36.8238C10.8988 36.8112 12.9615 37.1915 14.9943 37.9648C14.8522 38.4875 14.7101 39.0103 14.5734 39.5276C14.4471 40.0072 14.3156 40.4868 14.184 40.9665C14.0524 41.4569 13.9363 41.8234 13.8146 42.1578C13.6982 42.4813 13.5441 42.7943 13.4005 43.0803C12.9275 44.0247 12.4437 44.9692 11.9544 45.9083L11.9436 45.903C11.8541 46.0757 11.7568 46.2408 11.6584 46.408C11.6399 46.4393 11.6214 46.4707 11.6029 46.5023C11.5657 46.567 11.5271 46.6318 11.4885 46.6966C11.4498 46.7614 11.4112 46.8262 11.374 46.891Z" fill="#72C8E3"/>
<path d="M11.4571 17.9177C11.4855 17.288 11.6557 16.9642 12.0581 16.7896C12.1815 16.7351 12.3051 16.7128 12.4342 16.712C12.6548 16.7107 12.8866 16.7846 13.1242 16.9392C13.9018 17.4348 14.2881 18.1427 14.2774 19.0413C14.2742 19.4072 14.1361 19.7093 13.8952 19.8937C13.6703 20.0672 13.3693 20.1121 13.0568 20.0279C12.8251 19.9647 12.5768 19.8371 12.3552 19.6555C11.82 19.2229 11.5151 18.6276 11.4625 17.9231L11.4571 17.9177Z" fill="#72C8E3"/>
<path d="M10.5 18.8919C10.6775 19.7786 11.1329 20.3677 11.8826 20.686C12.078 20.7691 12.2524 20.8007 12.416 20.791C11.9028 20.5624 11.4685 20.1954 11.1288 19.6844C10.7868 19.17 10.5953 18.6385 10.549 18.0954C10.4536 18.3327 10.439 18.591 10.5 18.8919Z" fill="#72C8E3"/>
<path d="M4.95491 32.4407L4.97285 32.7419C5.00284 33.2529 5.04359 33.7637 5.08972 34.2746L5.14769 34.9683L5.17092 35.257C5.18644 35.4496 5.20196 35.6421 5.21751 35.8395C4.82002 35.9387 4.42794 36.0379 4.03587 36.1425L3.63303 36.2472L3.61045 36.0752C3.59677 35.9655 3.58245 35.8564 3.56815 35.7476C3.54111 35.5417 3.51415 35.3365 3.49178 35.1289C3.41785 34.4676 3.35466 33.8062 3.29149 33.1448L3.29113 33.0857C3.25113 32.6985 3.21647 32.3006 3.20337 31.9133C3.16068 30.1919 3.12337 28.4704 3.09683 26.7489C3.09583 26.5832 3.0992 26.411 3.10271 26.232C3.10467 26.132 3.10667 26.0298 3.10797 25.9256C3.6449 25.7556 4.18193 25.6017 4.72433 25.4478C4.7613 25.4364 4.79576 25.4302 4.83118 25.4238C4.84721 25.4209 4.86343 25.418 4.88016 25.4145L4.88429 26.0978C4.88482 26.1843 4.88049 26.266 4.87594 26.352L4.87515 26.3669L4.87512 26.3674C4.87034 26.4641 4.86555 26.5608 4.86614 26.6575L4.85541 27.5507C4.84419 28.3631 4.83852 29.2079 4.85432 30.0417C4.86992 30.8433 4.91786 31.6554 4.96565 32.4407L4.95491 32.4407Z" fill="#72C8E3"/>
<path d="M4.61743 9.53892L4.89133 9.46732C5.42307 9.3296 5.97096 9.19178 6.51366 9.08628C7.11009 8.96968 7.7445 8.90667 8.50299 8.90208C8.77734 8.90042 9.06785 8.90405 9.37457 8.91833C10.4023 8.96054 11.4683 9.09399 12.5402 9.31886C12.7018 9.35554 12.7558 9.39826 12.8052 9.55399C12.8875 9.82789 12.986 10.0963 13.0845 10.3647L13.1556 10.5634C10.1648 9.7206 7.23308 9.73832 4.23122 10.6173C4.34742 10.2615 4.46902 9.90568 4.61743 9.53892Z" fill="#8FC5DA"/>
<path d="M11.374 46.891C10.56 46.6215 9.69313 46.4869 8.80016 46.4923C8.65491 46.4932 8.50967 46.494 8.36449 46.5057C8.02217 46.5226 7.68002 46.5717 7.35054 46.6189L7.2678 46.6307L7.19258 46.6419C6.46903 45.3066 5.95656 44.1852 5.58436 43.1275C5.20123 42.043 4.86102 40.9368 4.55852 39.841C4.41872 39.3353 4.31691 38.8056 4.21742 38.2879L4.19886 38.1914C4.15991 37.9765 4.121 37.7669 4.07663 37.5465C4.19116 37.5192 4.30701 37.4918 4.42287 37.4644L4.4258 37.4637L4.4288 37.463C4.54464 37.4356 4.66046 37.4083 4.77496 37.3809L4.86129 37.3599C5.35469 37.2396 5.85715 37.117 6.35986 37.0377C6.92414 36.9429 7.51555 36.8909 8.08013 36.8444C8.16884 36.8358 8.25756 36.8286 8.34629 36.8213C8.43501 36.814 8.52374 36.8068 8.61245 36.7982L8.61261 36.8251L8.82777 36.8238C10.8988 36.8112 12.9615 37.1915 14.9943 37.9648C14.8522 38.4875 14.7101 39.0103 14.5734 39.5276C14.4471 40.0072 14.3156 40.4868 14.184 40.9665C14.0524 41.4569 13.9363 41.8234 13.8146 42.1578C13.6982 42.4813 13.5441 42.7943 13.4005 43.0803C12.9275 44.0247 12.4437 44.9692 11.9544 45.9083L11.9436 45.903C11.8541 46.0757 11.7568 46.2408 11.6584 46.408C11.6399 46.4393 11.6214 46.4707 11.6029 46.5023C11.5657 46.567 11.5271 46.6318 11.4885 46.6966C11.4498 46.7614 11.4112 46.8262 11.374 46.891Z" fill="#8FC5DA"/>
<path d="M11.4571 17.9177C11.4855 17.288 11.6557 16.9642 12.0581 16.7896C12.1815 16.7351 12.3051 16.7128 12.4342 16.712C12.6548 16.7107 12.8866 16.7846 13.1242 16.9392C13.9018 17.4348 14.2881 18.1427 14.2774 19.0413C14.2742 19.4072 14.1361 19.7093 13.8952 19.8937C13.6703 20.0672 13.3693 20.1121 13.0568 20.0279C12.8251 19.9647 12.5768 19.8371 12.3552 19.6555C11.82 19.2229 11.5151 18.6276 11.4625 17.9231L11.4571 17.9177Z" fill="#8FC5DA"/>
<path d="M10.5 18.8919C10.6775 19.7786 11.1329 20.3677 11.8826 20.686C12.078 20.7691 12.2524 20.8007 12.416 20.791C11.9028 20.5624 11.4685 20.1954 11.1288 19.6844C10.7868 19.17 10.5953 18.6385 10.549 18.0954C10.4536 18.3327 10.439 18.591 10.5 18.8919Z" fill="#8FC5DA"/>
<path d="M4.95491 32.4407L4.97285 32.7419C5.00284 33.2529 5.04359 33.7637 5.08972 34.2746L5.14769 34.9683L5.17092 35.257C5.18644 35.4496 5.20196 35.6421 5.21751 35.8395C4.82002 35.9387 4.42794 36.0379 4.03587 36.1425L3.63303 36.2472L3.61045 36.0752C3.59677 35.9655 3.58245 35.8564 3.56815 35.7476C3.54111 35.5417 3.51415 35.3365 3.49178 35.1289C3.41785 34.4676 3.35466 33.8062 3.29149 33.1448L3.29113 33.0857C3.25113 32.6985 3.21647 32.3006 3.20337 31.9133C3.16068 30.1919 3.12337 28.4704 3.09683 26.7489C3.09583 26.5832 3.0992 26.411 3.10271 26.232C3.10467 26.132 3.10667 26.0298 3.10797 25.9256C3.6449 25.7556 4.18193 25.6017 4.72433 25.4478C4.7613 25.4364 4.79576 25.4302 4.83118 25.4238C4.84721 25.4209 4.86343 25.418 4.88016 25.4145L4.88429 26.0978C4.88482 26.1843 4.88049 26.266 4.87594 26.352L4.87515 26.3669L4.87512 26.3674C4.87034 26.4641 4.86555 26.5608 4.86614 26.6575L4.85541 27.5507C4.84419 28.3631 4.83852 29.2079 4.85432 30.0417C4.86992 30.8433 4.91786 31.6554 4.96565 32.4407L4.95491 32.4407Z" fill="#8FC5DA"/>
<path d="M17.5417 46.461C17.2262 47.6627 16.8822 48.6009 16.4675 49.4105C15.9997 50.3279 15.4452 51.1545 14.8255 51.8684C14.5477 52.1875 14.259 52.496 13.965 52.799L13.9768 52.7126L13.9768 52.7122C14.009 52.4763 14.0416 52.2371 14.0785 52.0021C14.1233 51.7004 14.1729 51.3987 14.2225 51.0971C14.2473 50.9464 14.2721 50.7956 14.2963 50.6449L14.4001 50.0256C14.4105 49.9609 14.4208 49.8963 14.4258 49.8317C14.4413 49.7133 14.4567 49.5948 14.4882 49.4762C14.5512 49.2176 14.4853 48.992 14.2798 48.8211C14.1852 48.7437 14.092 48.6662 13.9987 48.5888C13.9054 48.5113 13.8122 48.4339 13.7176 48.3564L13.2256 47.9505C13.1418 47.8811 13.0593 47.8116 12.9768 47.7422C12.8944 47.6727 12.8119 47.6033 12.7281 47.5338L12.6362 47.4537C13.7758 45.5314 15.1163 43.0215 15.8626 40.1116C16.3526 41.0771 16.9193 42.2789 17.3574 43.546C17.5216 44.0131 17.7082 44.636 17.712 45.2655C17.7142 45.6206 17.6574 46.0191 17.5417 46.4502L17.5417 46.461Z" fill="#589ABD"/>
<path d="M6.17361 47.1646L6.1522 47.1808L6.14796 47.1841C5.72639 47.5138 5.30481 47.8434 4.8886 48.1731C4.71265 48.3134 4.53536 48.4525 4.35807 48.5915L4.3577 48.5918L4.35704 48.5923L4.35587 48.5933C4.17785 48.7329 3.99982 48.8725 3.82315 49.0134C3.57149 49.2087 3.47627 49.4729 3.53746 49.8061L4.08887 52.9233L4.09997 52.977C2.95829 51.8864 2.09067 50.7456 1.45912 49.5012C0.985455 48.5679 0.613513 47.5533 0.332141 46.3928C0.210803 45.8986 0.309928 45.3922 0.430531 44.875C0.70333 43.7273 1.14317 42.6217 1.57807 41.5915C1.88037 40.8741 2.24109 40.0326 2.64502 39.2177C2.80448 38.8993 3.00169 38.5968 3.2096 38.2835C3.25403 38.5146 3.29847 38.7457 3.34828 38.9767C3.65843 40.449 4.09247 41.9475 4.6447 43.4184C5.05481 44.5188 5.57815 45.6617 6.23128 46.9167C6.25847 46.965 6.29111 47.024 6.30751 47.0669C6.27539 47.094 6.22187 47.1374 6.17903 47.1699L6.17361 47.1646Z" fill="#A4E6FF"/>
</svg>
