<svg width="628" height="145" viewBox="0 0 628 145" fill="none" xmlns="http://www.w3.org/2000/svg">
<g clip-path="url(#clip0_1486_53)">
<path d="M10.5697 75.59C8.7974 75.9478 7.1146 76.6565 5.62024 77.6742C4.12588 78.692 2.85015 79.9983 1.86808 81.5164C0.886019 83.0344 0.217455 84.7336 -0.0982796 86.5138C-0.414014 88.294 -0.370543 90.1194 0.029576 91.8826C0.429695 93.6458 1.17838 95.3112 2.2316 96.7808C3.28481 98.2504 4.62128 99.4945 6.16239 100.44C7.70351 101.385 9.41814 102.013 11.2054 102.286C12.9927 102.559 14.8165 102.472 16.5697 102.03C18.3419 101.672 20.0247 100.964 21.5191 99.9458C23.0134 98.928 24.2892 97.6217 25.2712 96.1036C26.2533 94.5856 26.9219 92.8864 27.2376 91.1062C27.5533 89.326 27.5099 87.5006 27.1097 85.7374C26.7096 83.9742 25.9609 82.3088 24.9077 80.8392C23.8545 79.3696 22.518 78.1255 20.9769 77.18C19.4358 76.2346 17.7212 75.6068 15.9339 75.3338C14.1466 75.0607 12.3228 75.1478 10.5697 75.59Z" fill="white"/>
<path d="M17.0004 47.3201C18.3878 48.4291 19.9801 49.254 21.6863 49.7476C23.3925 50.2413 25.1792 50.3941 26.9445 50.1972C28.7097 50.0003 30.4189 49.4577 31.9744 48.6003C33.53 47.7429 34.9014 46.5875 36.0104 45.2001C37.1194 43.8127 37.9443 42.2204 38.4379 40.5142C38.9316 38.808 39.0844 37.0213 38.8875 35.256C38.6906 33.4908 38.148 31.7816 37.2906 30.2261C36.4332 28.6705 35.2778 27.2991 33.8904 26.1901C31.0884 23.9503 27.5114 22.9154 23.9463 23.313C20.3813 23.7106 17.1202 25.5081 14.8804 28.3101C12.6406 31.1121 11.6057 34.6891 12.0033 38.2542C12.4009 41.8192 14.1984 45.0803 17.0004 47.3201Z" fill="white"/>
<path d="M52.75 118.36C50.3391 117.2 47.6385 116.781 44.9894 117.155C42.3403 117.53 39.8617 118.681 37.8669 120.464C35.8722 122.247 34.4508 124.582 33.7825 127.172C33.1141 129.763 33.2288 132.493 34.1121 135.019C34.9954 137.544 36.6076 139.751 38.7448 141.361C40.8821 142.97 43.4485 143.909 46.1197 144.061C48.7909 144.212 51.4469 143.567 53.7519 142.209C56.057 140.851 57.9077 138.84 59.07 136.43C59.8657 134.833 60.3335 133.093 60.4456 131.312C60.5578 129.531 60.312 127.746 59.723 126.062C59.1339 124.377 58.2134 122.828 57.0157 121.505C55.8181 120.183 54.3677 119.113 52.75 118.36Z" fill="white"/>
<path d="M94.4004 118.37C91.9893 119.531 89.9767 121.381 88.617 123.686C87.2573 125.99 86.6116 128.647 86.7615 131.319C86.9114 133.99 87.8503 136.558 89.4594 138.696C91.0684 140.834 93.2754 142.447 95.8012 143.331C98.327 144.215 101.058 144.33 103.649 143.662C106.241 142.993 108.575 141.572 110.359 139.576C112.142 137.581 113.293 135.102 113.667 132.452C114.041 129.802 113.621 127.101 112.46 124.69C111.708 123.073 110.64 121.622 109.318 120.425C107.996 119.227 106.448 118.307 104.764 117.718C103.081 117.129 101.296 116.883 99.5164 116.995C97.7363 117.107 95.9967 117.574 94.4004 118.37Z" fill="white"/>
<path d="M136.58 75.5801C133.963 74.9829 131.228 75.175 128.721 76.1321C126.214 77.0892 124.046 78.7683 122.493 80.9572C120.94 83.146 120.071 85.7462 119.996 88.429C119.92 91.1118 120.642 93.7567 122.07 96.0293C123.498 98.3018 125.568 100.1 128.017 101.196C130.467 102.292 133.187 102.638 135.833 102.188C138.479 101.739 140.932 100.515 142.882 98.671C144.833 96.8273 146.193 94.4467 146.79 91.8301C147.213 90.0915 147.283 88.2857 146.996 86.5195C146.709 84.7533 146.071 83.0627 145.119 81.5476C144.167 80.0325 142.921 78.7237 141.454 77.6987C139.987 76.6737 138.33 75.9533 136.58 75.5801Z" fill="white"/>
<path d="M132.111 47.31C134.197 45.6419 135.742 43.3928 136.55 40.8468C137.359 38.3009 137.395 35.5724 136.653 33.0062C135.911 30.44 134.425 28.1513 132.383 26.4294C130.341 24.7075 127.834 23.6296 125.179 23.332C122.525 23.0344 119.841 23.5305 117.469 24.7575C115.096 25.9844 113.14 27.8873 111.848 30.2255C110.557 32.5637 109.987 35.2324 110.212 37.8941C110.437 40.5559 111.445 43.0914 113.111 45.18C114.202 46.59 115.565 47.7665 117.12 48.6398C118.674 49.5132 120.388 50.0655 122.16 50.2642C123.932 50.4628 125.726 50.3037 127.435 49.7962C129.144 49.2888 130.734 48.4433 132.111 47.31Z" fill="white"/>
<path d="M73.5794 5.17507e-05C71.7885 -0.0241898 70.0109 0.310843 68.3517 0.985347C66.6925 1.65985 65.1853 2.66014 63.9193 3.92708C62.6533 5.19403 61.6541 6.70191 60.9809 8.36162C60.3076 10.0213 59.9739 11.7992 59.9994 13.5901C60.0954 17.1292 61.5688 20.4912 64.106 22.9605C66.6433 25.4298 70.0439 26.8114 73.5844 26.8114C77.1249 26.8114 80.5256 25.4298 83.0628 22.9605C85.6 20.4912 87.0734 17.1292 87.1694 13.5901C87.1964 11.7979 86.8633 10.0186 86.1899 8.35764C85.5165 6.69664 84.5165 5.18774 83.2491 3.92038C81.9817 2.65301 80.4728 1.65299 78.8118 0.979579C77.1508 0.306168 75.3715 -0.0269223 73.5794 5.17507e-05Z" fill="white"/>
<path d="M251.91 127.65V86.42C251.91 68.91 245.54 59.61 230.82 59.61C223.56 59.61 217.7 62.1 213.16 67.08C208.62 72.06 206.28 78.51 206.28 86.42V127.65H188V15.15H206.31V58.22C211.51 49.22 222.42 43.94 236.85 43.94C248.64 43.94 257.14 47.6 262.41 54.85C267.68 62.1 270.32 72.65 270.32 86.42V127.65H251.91Z" fill="white"/>
<path d="M307.87 45.1801V86.4201C307.87 103.92 313.59 113.15 327.28 113.15C334.61 113.15 340.28 110.73 344.28 105.83C348.28 100.93 350.28 94.4801 350.28 86.4201V45.1801H368.59V127.65H351.09L350.28 114.65C344.76 124.15 335.066 128.877 321.2 128.83C309.71 128.83 301.43 125.02 296.52 117.4C291.61 109.78 289.52 99.8901 289.52 86.4001V45.1801H307.87Z" fill="white"/>
<path d="M519.479 55.5301C524.099 63.1501 526.069 73.0401 526.069 86.5901V127.82H507.759V86.5901C507.759 69.0801 502.119 59.7801 488.759 59.7801C481.659 59.7801 476.089 62.2001 472.129 67.1001C468.169 72.0001 466.199 78.5301 466.199 86.5901V127.82H447.779V86.5901C447.779 69.0801 442.139 59.7801 428.779 59.7801C421.669 59.7801 416.099 62.2001 412.149 67.1001C408.199 72.0001 406.149 78.5301 406.149 86.5901V127.82H387.789V45.3501H405.299L406.099 58.3501C411.099 48.4601 420.309 44.0701 435.179 44.0701C449.099 44.0701 458.256 50.0001 462.649 61.8601C467.999 50.4101 479.199 44.1101 495.239 44.1101C506.659 44.1101 514.789 48.0001 519.479 55.5301Z" fill="white"/>
<path d="M616 57.36C623.84 65.64 628.23 78.36 627.43 92.74H558.53C559.582 98.8297 562.747 104.353 567.469 108.34C572.012 112.296 577.857 114.433 583.88 114.34C594.64 114.34 603.36 108.4 607.75 98.52L623.43 106.06C619.84 113.126 614.228 118.964 607.31 122.83C598.777 127.64 588.971 129.707 579.222 128.752C569.474 127.797 560.256 123.865 552.82 117.49C544.76 110.23 539.64 99.18 539.64 86.58C539.552 80.7792 540.679 75.0242 542.949 69.6852C545.219 64.3462 548.581 59.5414 552.82 55.58C561.403 48.0513 572.463 43.9562 583.88 44.08C596.77 44.11 608.19 49.09 616 57.36ZM567.15 64.76C562.5 68.8073 559.415 74.3551 558.43 80.44H609.33C608.351 74.3352 605.27 68.7642 600.62 64.69C595.927 60.765 589.966 58.682 583.849 58.83C577.753 58.6908 571.819 60.8018 567.18 64.76H567.15Z" fill="white"/>
</g>
<defs>
<clipPath id="clip0_1486_53">
<rect width="627.55" height="144.15" fill="white"/>
</clipPath>
</defs>
</svg>
