<svg width="666" height="187" viewBox="0 0 666 187" fill="none" xmlns="http://www.w3.org/2000/svg">
<path d="M217.349 81.51C215.188 81.51 213.115 80.6513 211.586 79.1229C210.058 77.5945 209.199 75.5215 209.199 73.36C209.199 71.1985 210.058 69.1255 211.586 67.5971C213.115 66.0687 215.188 65.21 217.349 65.21C218.439 65.1654 219.526 65.3421 220.546 65.7296C221.565 66.117 222.496 66.707 223.281 67.4641C224.066 68.2212 224.69 69.1295 225.114 70.1343C225.538 71.139 225.754 72.2194 225.749 73.31C225.747 74.4031 225.526 75.4847 225.101 76.4916C224.675 77.4985 224.053 78.4104 223.271 79.174C222.489 79.9376 221.562 80.5375 220.546 80.9386C219.529 81.3397 218.442 81.5339 217.349 81.51Z" fill="white"/>
<path d="M597.51 131.88C587.57 131.88 579.94 122.59 579.94 110.71C579.855 107.471 580.423 104.247 581.609 101.232C582.795 98.2163 584.576 95.4701 586.845 93.1565C589.113 90.8429 591.824 89.0091 594.816 87.7642C597.808 86.5193 601.02 85.8888 604.26 85.91C607.242 85.9499 610.184 86.607 612.9 87.84L613.23 87.99V78.29C613.23 73.78 612.69 73.48 610.38 72.93L609.68 72.76L606.68 71.88L627.18 65.22V120C627.18 124.91 627.83 126.14 630.82 127L632.64 127.46L632.09 128.75L613.25 131.86V122.63L612.83 123.16C608.49 128.64 602.78 131.88 597.51 131.88ZM604.91 88.53C598.17 88.53 594.91 94.45 594.91 106.64C594.91 117.32 598.86 123.95 605.21 123.95C607.279 123.929 609.261 123.116 610.749 121.678C612.237 120.24 613.118 118.287 613.21 116.22V96.86C613.22 90.57 607.62 88.53 604.91 88.53Z" fill="white"/>
<path d="M205.33 130.41L205.55 129.16L208.74 128.66C209.342 128.617 209.905 128.345 210.314 127.901C210.723 127.457 210.947 126.874 210.94 126.27V99.44C210.94 94.37 208.62 93.09 206.6 92.54L205.4 92.24L224.86 85.91V126.21C224.842 126.79 225.035 127.356 225.403 127.805C225.77 128.253 226.288 128.554 226.86 128.65L230.2 129.17L230.42 130.42L205.33 130.41Z" fill="white"/>
<path d="M422.389 154.22L422.609 152.97L425.799 152.47C426.401 152.427 426.964 152.155 427.373 151.711C427.782 151.267 428.006 150.684 427.999 150.08V99.84C427.999 96.43 426.469 93.49 424.359 92.84L422.359 92.33L441.929 85.88V95.15L442.349 94.62C446.659 89.15 451.979 85.88 457.249 85.88C467.179 85.91 473.999 96.13 473.999 108C473.999 123.83 461.899 131.86 449.999 131.86C447.308 131.938 444.632 131.426 442.159 130.36L441.829 130.21V150.05C441.823 150.655 442.048 151.24 442.459 151.684C442.87 152.129 443.435 152.399 444.039 152.44L447.219 152.94L447.439 154.19L422.389 154.22ZM449.839 93.59C447.767 93.6736 445.799 94.5259 444.32 95.9807C442.841 97.4356 441.957 99.3888 441.839 101.46V121.54C441.851 123.546 442.641 125.469 444.041 126.905C445.442 128.341 447.344 129.178 449.349 129.24C453.919 129.24 459.769 125.57 459.769 110.01C459.739 99.33 456.189 93.59 449.839 93.59Z" fill="white"/>
<path d="M319.66 126.28V102C319.651 100.984 319.44 99.9804 319.039 99.0471C318.638 98.1138 318.055 97.2698 317.324 96.5642C316.593 95.8586 315.729 95.3055 314.783 94.9374C313.836 94.5693 312.825 94.3934 311.81 94.42C309.891 94.468 308.063 95.2512 306.705 96.6077C305.346 97.9643 304.561 99.7908 304.51 101.71V126.23C304.505 126.799 304.704 127.351 305.071 127.785C305.438 128.22 305.948 128.509 306.51 128.6L309.85 129.12L310.07 130.37H285.85L286.07 129.12L288.54 128.6C289.096 128.51 289.603 128.225 289.969 127.797C290.335 127.368 290.538 126.824 290.54 126.26V77.7C290.542 76.5815 290.207 75.4882 289.58 74.5625C288.952 73.6368 288.06 72.9216 287.02 72.51L284.84 71.65L304.65 65.2V94.88L305.08 94.23C305.14 94.15 310.73 85.91 320.63 85.91C324.049 85.9919 327.31 87.3637 329.76 89.75C332.05 92.14 333.43 96.35 333.43 100.99L333.53 126.29C333.525 126.859 333.724 127.411 334.091 127.845C334.458 128.28 334.968 128.569 335.53 128.66L338.87 129.18L339.09 130.43H314.92L315.14 129.18L317.61 128.66C318.166 128.57 318.673 128.285 319.039 127.857C319.405 127.428 319.608 126.884 319.61 126.32" fill="white"/>
<path d="M152.331 69.35C152.337 68.7463 152.113 68.1629 151.705 67.7188C151.296 67.2746 150.733 67.0032 150.131 66.96L146.941 66.46L146.721 65.21H174.241L174.001 66.46L170.811 66.96C170.209 67.0032 169.646 67.2746 169.237 67.7188C168.828 68.1629 168.604 68.7463 168.611 69.35V125.63C168.611 128.28 172.081 127.88 172.081 127.88C182.001 127.88 188.151 124.16 194.801 109.67L195.891 107.29H199.001L196.221 130.41H146.721L146.941 129.16L150.131 128.66C150.733 128.617 151.296 128.345 151.705 127.901C152.113 127.457 152.337 126.874 152.331 126.27V69.35Z" fill="white"/>
<path d="M361.999 131.88C358.647 131.841 355.445 130.479 353.091 128.091C350.737 125.703 349.421 122.483 349.429 119.13V93.46H339.609L345.709 87.46H347.779C347.996 87.46 348.211 87.417 348.412 87.3333C348.612 87.2496 348.794 87.127 348.946 86.9726C349.099 86.8182 349.219 86.6351 349.3 86.4338C349.382 86.2325 349.422 86.0171 349.419 85.8V80.47L362.419 76.16V87.48H374.899L369.189 93.48H362.459V117.57C362.459 123.74 366.869 125.98 369.839 125.98C371.108 125.968 372.357 125.663 373.489 125.09L373.659 125.02L374.889 126.45C371.339 129.62 367.759 131.88 361.999 131.88Z" fill="white"/>
<path d="M496.66 104.3L523.41 104.71C523.51 103.88 523.53 101.23 523.49 100.3C523.19 93.54 518.49 85.91 506.2 85.91C492.31 85.91 481.83 96.08 481.83 109.91C481.83 122.5 490.94 131.91 503.03 131.91C512.73 131.91 519.54 127.59 523.32 118.82L522.32 117.96C521.11 119.854 519.434 121.404 517.451 122.462C515.468 123.52 513.247 124.05 511 124C502.34 124 496.68 117 496.58 106.11C496.571 105.506 496.598 104.901 496.66 104.3ZM496.66 100.96C497.34 92.53 500.25 88.7 504.83 88.7C505.455 88.687 506.076 88.8028 506.654 89.0402C507.232 89.2776 507.755 89.6316 508.19 90.08C510.09 92.01 511.01 95.08 510.92 100.88V101.11L496.65 101.21L496.66 100.96Z" fill="white"/>
<path d="M545.199 104.3L571.949 104.71C572.049 103.88 572.069 101.23 572.029 100.3C571.729 93.54 567.029 85.91 554.739 85.91C540.849 85.91 530.369 96.08 530.369 109.91C530.369 122.5 539.479 131.91 551.569 131.91C561.269 131.91 568.079 127.59 571.859 118.82L570.859 117.96C569.651 119.874 567.968 121.442 565.974 122.511C563.979 123.58 561.741 124.114 559.479 124.06C550.819 124.06 545.159 117.06 545.059 106.17C545.067 105.544 545.114 104.92 545.199 104.3ZM545.199 100.96C545.879 92.53 548.789 88.7 553.369 88.7C553.994 88.687 554.615 88.8028 555.193 89.0402C555.771 89.2776 556.294 89.6316 556.729 90.08C558.629 92.01 559.549 95.08 559.459 100.88V101.11L545.189 101.21L545.199 100.96Z" fill="white"/>
<path d="M403.1 102.94C397.19 100.67 392.74 98.94 392.74 94.57C392.74 90.57 395.53 88.24 399.55 88.24C401.529 88.2416 403.47 88.7883 405.16 89.82L412.64 100.68L415.2 100.58L414.7 85.91L409.88 87.48C406.561 86.4587 403.111 85.9297 399.64 85.91C389.01 85.91 381.92 91.52 381.92 100.28C381.92 108.35 388.02 111.41 395.51 114.28C401.02 116.45 406.15 118 406.15 123.56C406.15 126.73 403.15 129.83 398.27 129.83C393.15 129.83 390.49 127.27 387.15 122.35L384.41 116.65L381.78 117.29L380.85 128.84C386.356 130.806 392.153 131.833 398 131.88C411.19 131.88 417.2 124.88 417.2 117.21C417.18 108.55 409.89 105.7 403.1 102.94Z" fill="white"/>
<path d="M266.54 122.06H250.89C249.956 121.991 249.08 121.577 248.434 120.899C247.787 120.221 247.415 119.327 247.39 118.39C247.372 117.892 247.453 117.395 247.63 116.929C247.806 116.463 248.074 116.037 248.418 115.676C248.762 115.315 249.175 115.027 249.632 114.828C250.09 114.63 250.582 114.525 251.08 114.52C251.293 114.504 251.507 114.504 251.72 114.52C253.208 114.79 254.718 114.921 256.23 114.91C268.11 114.91 276.16 108.72 276.16 99.99C276.16 97.39 275.73 95.5 274.26 93.85L279.71 88.85L278.39 85L269.07 88.84C265.317 86.8969 261.147 85.8981 256.92 85.93C245.34 85.93 237.48 93.37 237.48 101.22C237.48 107.99 241.31 111.73 246.91 113.69V113.79C241.12 115.46 235.82 119.39 235.82 124.69C235.82 129.4 240.53 133.62 246.33 134.31C240.44 136.57 234.65 139.22 234.65 144.42C234.65 151 240.93 154.24 253.65 154.24C269.85 154.24 281.34 145.24 281.34 134.7C281.36 126.82 275.28 122.06 266.54 122.06ZM252.27 91.46C252.703 90.6271 253.356 89.9292 254.159 89.4424C254.961 88.9557 255.882 88.6988 256.82 88.7C260.51 88.7 262.82 91.85 262.82 100.81C262.82 109.77 261.09 112.81 256.82 112.81C253.21 112.81 251.13 109.24 251.13 100.7C251.12 96.52 251.35 93.4 252.27 91.46ZM254.95 150.86C248.77 150.86 245.14 147.22 245.14 141.92C245.14 137.92 249.5 134.43 253.46 134.43H261.82C268.82 134.92 272.13 136.43 272.13 141.43C272.13 147 262.91 150.86 255 150.86H254.95Z" fill="white"/>
<path d="M97.8096 97.81H65.2096V65.21L32.5996 32.6V65.21V97.81V130.42H65.2096H97.8096H130.42L97.8096 97.81Z" fill="#ED6D5B"/>
</svg>
