<svg width="602" height="124" viewBox="0 0 602 124" fill="none" xmlns="http://www.w3.org/2000/svg">
<path d="M370.701 62.7001C366.901 68.3001 359.501 69.6001 357.201 69.6001C351.901 69.6001 347.801 66.9001 346.001 63.6001C340.401 66.5001 334.801 69.2001 328.101 69.2001C323.701 69.2001 320.501 67.4 319.001 64.4C314.901 67 309.501 69.4001 304.901 69.6001C297.901 69.9001 293.801 66.6001 291.601 61.1001C285.701 64.9001 277.001 68.3001 268.301 68.7001C262.401 69.0001 254.501 68.3001 250.401 63.6001C250.301 63.7001 250.101 63.9 250.001 64C246.201 67.1 240.801 69.5 234.801 69.5C222.201 69.5 221.501 58.3 222.001 50.5C222.001 49 222.001 46.7001 222.401 44.7001C221.301 44.8001 220.101 45.0001 219.001 45.1001C216.801 45.3001 214.601 45.5 212.501 45.8C211.801 45.9 211.001 46.0001 210.301 46.1001H210.101C209.401 46.2001 208.801 46.2 208.101 46.3C207.801 48.4 207.701 50.5001 207.601 52.6001C207.501 54.7001 207.501 56.8 207.501 58.8C207.501 61.4 207.601 63.9 207.701 66.4C207.801 68.9 208.001 71.1001 208.301 73.2001C208.601 75.3001 208.801 77.1001 209.101 78.7001C209.401 80.3001 209.701 81.5 210.101 82.4C210.301 82.9 210.701 83.4 211.301 83.8C211.401 84 211.601 84.2 211.901 84.5C212.101 84.8 212.301 85 212.501 85.3C213.001 86.1 213.201 86.8 213.201 87.5C213.201 88.4 212.701 89.3001 211.801 90.2001C210.701 91.1001 209.601 91.5 208.501 91.5C207.401 91.5 206.601 91.3 205.801 90.9C204.701 90.3 203.801 89.6001 203.001 88.7001C202.301 87.8001 201.601 86.7 201.101 85.4C200.601 83.7 200.101 81.9 199.701 79.8C199.301 77.7 199.001 75.6 198.801 73.3C197.801 73.6 196.301 73.9 194.001 74.3L193.601 74.4H193.401C191.501 74.8 190.001 75 188.501 75.5C188.501 75.5 188.701 87.1001 188.701 92.2001C188.701 103.7 185.801 112.6 181.201 117.6C177.101 122.2 172.401 123.1 170.601 123.1C162.701 123.3 152.401 116.2 152.401 105.2C152.401 92.6001 162.001 78.3 178.201 71.8C177.901 67.4 177.401 62.5 176.501 59.9C168.701 65.4 161.501 69.4 158.201 69.4C154.401 69.4 151.701 66.8001 149.801 63.1001C142.501 66.9001 136.801 66.9 132.901 66.9H132.801C127.101 66.9 124.701 63.5 121.601 57.9C109.201 64.4 101.101 68.3 98.6008 68.3C96.7008 68.3 95.3008 67.5001 94.3008 66.2001C91.5008 67.1001 89.1008 67.6001 87.1008 67.6001C81.3008 67.6001 76.1008 66.0001 71.8008 60.6001C67.6008 55.2001 65.0008 50.1 63.1008 42C61.4008 34.9 61.0008 28.3001 60.8008 20.1001L50.6008 61.7001C50.2008 66.3001 49.9008 66.5001 49.5008 66.7001L49.4008 66.8H49.3008C45.8008 69.2 44.7008 69.5 44.1008 69.5C43.3008 69.5 42.4008 69 42.3008 66.8C42.1008 60.8 41.5008 53.9 40.6008 46.4C39.6008 38.9 38.6008 32.7001 37.6008 28.1001C36.6008 23.5001 35.2008 19.5 33.6008 16.3C32.0008 13.2 30.4008 11.7 28.8008 11.7C27.1008 11.7 25.6008 12.4 24.2008 13.9C22.8008 15.4 21.7008 17.5 20.8008 20.3C21.7008 24.8 22.8008 31.9 24.0008 41.3C25.2008 50.8 25.9008 58.7001 25.9008 64.6001C25.9008 66.4001 25.3008 67.9 24.2008 69C23.1008 70.1 21.9008 70.6001 20.8008 70.6001C19.6008 70.6001 18.4008 69.4 17.3008 67C16.3008 64.8 15.5008 61.6 14.8008 57.4C14.1008 53.2 13.8008 49.5 13.8008 46.3C13.8008 43.1 13.9008 39.6 14.1008 35.7C13.0008 27.6 11.2008 20.4 8.90078 14.2C8.10078 12 7.10078 10 5.90078 8.30005C4.70078 6.70005 3.60078 5.80004 2.50078 5.70004C1.00078 5.50004 0.800781 4.50005 0.800781 4.10005C0.800781 3.00005 2.00078 2.30005 4.90078 1.60005C7.40078 1.00005 9.30078 0.800049 10.7008 0.800049C12.3008 0.800049 13.7008 2.00004 14.8008 4.40004C15.9008 6.80004 17.0008 9.60005 18.2008 12.8L18.4008 13.5C18.8008 14.7 19.2008 15.6 19.4008 16.2C21.2008 12.8 23.2008 10 25.5008 8.00005C28.2008 5.60005 31.1008 4.40004 34.2008 4.40004C36.4008 4.40004 38.4008 5.50005 40.2008 7.60005C41.9008 9.60005 43.2008 12.1001 44.3008 15.1001C45.8008 19.6001 46.3008 25 47.1008 32.4C47.3008 34.4 47.5008 36.5 47.7008 38.8L48.6008 49.9C49.0008 48.4 49.5008 46.2 50.3008 43C51.9008 36.2 53.3008 30.5 54.3008 26.3C57.7008 12.6 59.9008 7.00004 63.8008 5.70004C68.5008 4.10004 68.5008 8.50005 68.4008 10.6001C68.4008 10.8001 68.4008 10.9 68.4008 11C68.4008 12.8 68.5008 14.8 68.6008 16.9C68.7008 19 69.0008 21.9 69.4008 25.4C69.8008 28.9 70.4008 32.2 71.1008 35.4C71.8008 38.5 72.8008 41.8001 74.1008 45.1001C75.4008 48.4001 77.0008 50.7001 78.7008 53.1001C80.4008 55.5001 82.6008 57.4 85.3008 59C87.5008 60.3 90.0008 61.0001 92.7008 61.2001C92.7008 60.7001 92.6008 60.2001 92.6008 59.7001C92.6008 55.5001 98.6008 47.3 107.801 41.8C109.801 40.6 117.101 36.9 121.601 36.9C127.001 36.9 130.101 38.9 130.101 42.8C130.101 44.2 128.701 46.6001 125.001 46.2001C124.001 46.1001 123.201 45.9 122.501 45.8C120.901 45.5 119.301 45.2001 115.401 45.2001C109.101 45.2001 103.301 53.5 103.301 56C103.301 58.2 104.401 59.2001 106.601 59.2001C107.901 59.2001 109.301 58.3 111.501 56.8C113.601 55.4 116.601 53.4001 121.101 51.1001C122.501 50.3001 123.601 49.8 124.601 49.8C126.601 49.8 127.801 51.9 129.101 54.4C130.901 57.7 132.901 61.5 137.801 61.5C141.201 61.5 144.901 59.8 147.801 58.3C146.901 55.1 146.501 51.7001 146.501 48.7001C146.501 46.0001 149.501 43.9 153.801 43.9C154.301 43.9 154.901 43.9 155.501 44C156.201 44.2 157.501 47.9001 158.701 55.6001C159.301 59.3001 161.501 60.6001 164.001 60.6001C168.701 60.6001 172.901 54.4 175.901 49.9C176.501 49 177.001 48.2 177.501 47.5C180.301 43.7 183.501 41.3 185.301 41.3C187.201 41.3 187.601 52.9001 188.101 69.1001C190.701 68.5001 196.201 67.7001 198.001 67.7001H198.301C198.301 67.6001 198.301 67.4 198.301 67.3C198.301 67 198.301 66.8 198.301 66.5C198.201 64.1 198.201 61.8 198.201 59.5C198.201 57.3 198.201 55.1 198.301 53C198.401 50.9 198.501 49.0001 198.701 47.1001C197.301 47.3001 195.901 47.4 194.301 47.4H194.101C192.701 47.4 191.601 47.0001 190.901 46.2001C190.201 45.4001 189.901 44.5 189.901 43.5V43.3C189.901 42.4 190.201 41.6001 190.901 40.7001C191.401 40.1001 192.101 40.1 193.001 40C193.301 40 193.701 40 194.101 39.9H194.001C195.501 39.8 196.601 39.7001 197.201 39.6001C197.501 39.6001 197.901 39.6001 198.301 39.6001C198.701 39.6001 199.101 39.5 199.501 39.5C200.001 36.1 201.501 30.6 202.501 27.3C203.501 24 204.701 21 206.201 18.2C207.101 16.7 208.101 15.2 209.001 13.9C210.001 12.6 211.001 11.4 212.101 10.3C212.801 9.70005 213.601 9.00005 214.601 8.30005C215.601 7.60005 216.801 6.90004 218.101 6.20004C219.401 5.60004 220.701 5.00005 222.201 4.60005C223.601 4.20005 224.301 3.90004 225.801 3.90004C227.401 3.90004 228.801 4.10005 230.001 4.60005C231.201 5.10005 232.301 5.70005 233.101 6.50005C234.001 7.30005 234.601 8.10005 235.101 9.10005C235.601 10.1001 235.901 11 235.901 12C236.001 12.3 236.001 12.6 236.001 12.9V13.6001C236.001 14.4001 236.001 14.9 235.901 15.2V15.3C235.601 16.3 235.001 17.1 234.101 17.7C233.201 18.3 232.401 18.5 231.401 18.5C231.301 18.5 231.201 18.5 231.101 18.5C231.001 18.5 230.901 18.5 230.801 18.5C229.901 18.5 229.101 18.2 228.301 17.7C227.601 17.2 227.101 15.9 226.901 14.9L227.001 15C226.801 14.6 226.701 14.3 226.701 13.9C226.701 13.7 226.701 13.5 226.601 13.3C226.501 13.2 226.501 13.2001 226.501 13.1001V13.2C226.201 12.3 225.601 11.9 224.901 11.9H224.701C223.801 12 222.901 12.4 221.701 12.9L221.501 13C212.701 16.8 209.801 33.1 209.101 37.5C209.001 37.8 209.001 38.1 209.001 38.3C210.201 38.2 213.501 37.7 216.801 37.2C219.901 36.7 223.001 36.2001 224.301 36.1001C224.401 36.1001 224.601 36.1001 224.701 36.1001C224.801 36.1001 225.001 36.1001 225.101 36.1001C226.401 36.1001 227.401 36.5 228.201 37.3C228.901 38.1 229.301 39 229.301 40C229.301 40.1 229.301 40.1001 229.301 40.2001V40.3V40.4C229.301 42 229.601 44.8 229.801 47.4C229.901 48.6 230.001 49.8 230.101 50.8C230.501 56 232.901 63 240.601 63C243.401 63 246.201 62.1 248.501 61.4L248.701 61.3C247.901 59.7 247.401 57.9001 247.401 55.6001C247.501 47.2001 260.801 35.7 269.601 35.2C274.801 34.9 278.501 37.4001 277.901 42.2001C276.901 49.2001 265.901 53.6 259.301 56.3L258.601 56.6001C260.201 61.0001 264.901 63.1 273.701 62.5C279.701 62 285.601 59.6 290.401 57.5C289.801 55 289.601 52.1001 289.601 49.1001C289.601 46.0001 289.601 42.9 289.501 39.8C289.401 36 289.401 32.2 289.501 28.3C289.601 22.2 290.001 15.9 291.301 9.90004C291.701 8.00004 295.101 4.60005 297.401 4.60005C298.201 4.60005 299.201 5.50004 299.401 5.90004C299.701 6.60004 299.801 7.40005 299.801 9.30005C299.801 10.3 299.801 11.4001 299.701 13.1001C299.601 17.1001 299.201 21.9 298.901 26.8C298.401 33.5 297.901 40.5001 298.001 45.6001C298.101 54.2001 299.701 62.9 311.301 62.3C314.001 62.1 316.001 61.6001 318.001 60.7001C318.001 60.5001 318.001 60.4001 318.001 60.2001C318.001 49.5001 329.901 38.8001 343.001 36.6001C343.001 28.4001 343.501 19.7 344.801 11.4C345.601 6.50004 351.001 3.80005 352.401 3.60005C355.301 3.20005 356.001 4.80005 355.601 6.00005C353.001 17.8 351.701 52.1 355.401 60.3C357.701 65.2 365.201 62.1 370.301 59.8C372.001 59.1 371.401 61.8001 370.701 62.7001ZM343.301 44.8C343.301 43.5 343.201 42.3001 343.101 41.1001C333.801 41.3001 329.201 49 329.201 55.9C329.301 59.8 330.201 62.7001 335.501 62.7001C338.001 62.7001 341.801 61.2001 344.601 59.6001C343.701 55.3001 343.501 49.6 343.301 44.8ZM258.301 51.8C263.301 51.2 269.401 48.9 269.401 43.9C269.401 42.6 268.801 41.4001 267.301 41.6001C264.201 41.9001 259.201 46.6 258.601 49.4C258.401 50.2 258.301 51 258.301 51.8ZM229.601 33.9C231.501 33.9 233.001 32 233.001 30.4C233.101 28 230.401 23.9 227.001 23.9C224.701 23.9 221.901 25.5 221.901 27.3C221.901 30 226.101 33.9 229.601 33.9ZM409.101 47H418.201C419.901 47 421.401 47.3 422.701 48C424.001 48.6 425.101 49.6 425.801 50.8C426.601 52 426.901 53.3 426.901 54.9C426.901 56.5 426.501 57.8 425.801 59C425.101 60.2 424.001 61.1 422.701 61.8C421.401 62.5 419.901 62.8 418.201 62.8H414.101V71.4H409.101V47ZM418.201 58.3C419.401 58.3 420.201 58 420.901 57.3C421.601 56.6 421.901 55.8001 421.901 54.7001C421.901 53.7001 421.601 52.8001 420.901 52.2001C420.201 51.6001 419.301 51.2001 418.201 51.2001H414.101V58.2001H418.201V58.3ZM445.701 61.1001C445.701 62.0001 445.601 62.9 445.401 63.8H432.701C433.001 65 433.601 65.8 434.501 66.5C435.401 67.1 436.501 67.4 437.801 67.4C439.601 67.4 441.301 66.8001 442.901 65.6001L445.001 69C442.801 70.8 440.401 71.7001 437.701 71.7001C435.801 71.7001 434.101 71.3 432.601 70.5C431.101 69.7 429.901 68.5001 429.001 67.1001C428.101 65.6001 427.701 64 427.701 62.3C427.701 60.6 428.101 58.9 428.901 57.5C429.701 56 430.901 54.9 432.301 54C433.801 53.2 435.401 52.8 437.101 52.8C438.801 52.8 440.201 53.2 441.501 53.9C442.801 54.6 443.801 55.7 444.501 56.9C445.301 58.1 445.701 59.5001 445.701 61.1001ZM436.901 56.6001C435.801 56.6001 434.901 56.9001 434.101 57.6001C433.301 58.3001 432.801 59.2 432.501 60.3H440.801C440.801 59.2 440.401 58.3001 439.601 57.6001C438.901 56.9001 438.001 56.6001 436.901 56.6001ZM456.701 71.6001C454.901 71.6001 453.301 71.2 451.801 70.4C450.301 69.5 449.201 68.4 448.301 66.9C447.401 65.4 447.001 63.8001 447.001 62.1001C447.001 60.4001 447.401 58.8 448.301 57.3C449.201 55.8 450.301 54.7 451.801 53.8C453.301 53 454.901 52.6001 456.701 52.6001C458.501 52.6001 460.101 53 461.601 53.9C463.101 54.7 464.301 55.9 465.101 57.3C466.001 58.7 466.401 60.3001 466.401 62.1001C466.401 63.9001 466.001 65.4 465.101 66.9C464.201 68.3 463.101 69.5 461.501 70.4C460.101 71.2 458.401 71.6001 456.701 71.6001ZM456.701 67C458.001 67 459.201 66.5001 460.001 65.6001C460.901 64.7001 461.401 63.5001 461.401 62.1001C461.401 60.7001 460.901 59.5 460.001 58.5C459.101 57.5 458.001 57.1001 456.701 57.1001C455.301 57.1001 454.201 57.6 453.301 58.5C452.401 59.4 452.001 60.6001 452.001 62.1001C452.001 63.5001 452.401 64.7001 453.301 65.6001C454.201 66.5001 455.301 67 456.701 67ZM479.201 52.6001C480.901 52.6001 482.401 53 483.701 53.8C485.001 54.6 486.101 55.7001 486.901 57.2001C487.701 58.6001 488.001 60.2 488.001 62C488.001 63.8 487.601 65.4 486.901 66.9C486.101 68.3 485.101 69.5 483.701 70.3C482.401 71.1 480.901 71.5 479.201 71.5C478.101 71.5 477.101 71.3 476.201 70.9C475.301 70.5 474.501 70.0001 473.801 69.2001V77.6001H468.801V53H473.401V55.3C474.001 54.4 474.801 53.8 475.801 53.3C476.801 52.8 477.901 52.6001 479.201 52.6001ZM478.301 67.1001C479.601 67.1001 480.701 66.6001 481.601 65.7001C482.501 64.8001 483.001 63.6001 483.001 62.1001C483.001 60.6001 482.501 59.4 481.601 58.5C480.701 57.6 479.601 57.1001 478.301 57.1001C477.101 57.1001 476.001 57.5 475.101 58.4C474.201 59.2 473.701 60.5001 473.701 62.1001C473.701 63.7001 474.101 65 475.001 65.8C475.901 66.7 477.001 67.1001 478.301 67.1001ZM490.401 43.7001H495.401V71.2001H490.401V43.7001ZM515.701 61.1001C515.701 62.0001 515.601 62.9 515.401 63.8H502.701C503.001 65 503.601 65.8 504.501 66.5C505.401 67.1 506.501 67.4 507.801 67.4C509.601 67.4 511.301 66.8001 512.901 65.6001L515.001 69C512.801 70.8 510.401 71.7001 507.701 71.7001C505.801 71.7001 504.101 71.3 502.601 70.5C501.101 69.7 499.901 68.5001 499.001 67.1001C498.101 65.6001 497.701 64 497.701 62.3C497.701 60.6 498.101 58.9 498.901 57.5C499.701 56 500.901 54.9 502.301 54C503.801 53.2 505.401 52.8 507.101 52.8C508.801 52.8 510.201 53.2 511.501 53.9C512.801 54.6 513.801 55.7 514.501 56.9C515.401 58.1 515.701 59.5001 515.701 61.1001ZM507.001 56.6001C505.901 56.6001 505.001 56.9001 504.201 57.6001C503.401 58.3001 502.901 59.2 502.601 60.3H510.901C510.901 59.2 510.501 58.3001 509.701 57.6001C509.001 56.9001 508.101 56.6001 507.001 56.6001ZM527.201 47H543.101V51.5H532.101V57.6001H541.101V62.1001H532.101V71.3H527.101V47H527.201ZM545.001 53H550.001V71.2001H545.001V53ZM547.401 49.5C546.501 49.5 545.801 49.2001 545.201 48.6001C544.601 48.0001 544.301 47.3 544.301 46.4C544.301 45.5 544.601 44.8001 545.201 44.2001C545.801 43.6001 546.601 43.3 547.401 43.3C548.201 43.3 549.001 43.6001 549.601 44.2001C550.201 44.8001 550.601 45.5 550.601 46.4C550.601 47.3 550.301 48.0001 549.601 48.6001C549.101 49.2001 548.301 49.5 547.401 49.5ZM562.801 52.8C563.401 52.8 564.001 52.9 564.401 53V57.4H563.101C561.601 57.4 560.401 57.8001 559.501 58.6001C558.601 59.4001 558.201 60.6001 558.201 62.1001V71.2001H553.201V53H557.801V55.2001C558.401 54.4001 559.101 53.9 560.001 53.4C560.901 52.9 561.801 52.8 562.801 52.8ZM571.901 71.6001C570.301 71.6001 568.901 71.3001 567.601 70.7001C566.301 70.1001 565.201 69.2001 564.401 68.1001L566.901 65.1001C568.501 66.7001 570.201 67.6001 572.001 67.6001C572.701 67.6001 573.201 67.5001 573.701 67.2001C574.101 66.9001 574.401 66.6001 574.401 66.1001C574.401 65.7001 574.301 65.4001 574.001 65.2001C573.701 65.0001 573.301 64.7 572.601 64.4L570.701 63.6001C569.001 62.9001 567.801 62.2 567.001 61.3C566.201 60.5 565.801 59.4 565.801 58C565.801 56.3 566.401 55 567.601 54C568.801 53 570.501 52.6001 572.401 52.6001C575.101 52.6001 577.301 53.5 578.901 55.3L576.401 58.3C575.201 57.1 573.801 56.6001 572.301 56.6001C571.701 56.6001 571.201 56.7 570.901 56.9C570.601 57.1 570.401 57.4 570.401 57.9C570.401 58.2 570.501 58.5001 570.801 58.7001C571.101 58.9001 571.601 59.2 572.301 59.5L574.101 60.2001C575.901 60.9001 577.101 61.7 578.001 62.5C578.801 63.3 579.201 64.4001 579.201 65.7001C579.201 67.5001 578.501 68.9 577.201 70C575.601 71.1 573.901 71.6001 571.901 71.6001ZM590.501 67.2001C590.801 67.2001 591.601 67.2001 592.901 67.1001V71.2001C591.701 71.5001 590.601 71.6001 589.501 71.6001C587.201 71.6001 585.401 71 584.101 69.9C582.801 68.7 582.201 67 582.201 64.8V57.2001H579.301V53H582.201V48.4H587.201V53H592.301V57.2001H587.201V64.4C587.201 65.4 587.501 66.2001 588.001 66.6001C588.501 67.0001 589.301 67.2001 590.501 67.2001ZM597.701 71.6001C596.701 71.6001 595.901 71.3001 595.201 70.6001C594.501 69.9001 594.201 69.1001 594.201 68.1001C594.201 67.1001 594.501 66.3001 595.201 65.7001C595.901 65.1001 596.701 64.7001 597.701 64.7001C598.701 64.7001 599.501 65.0001 600.101 65.7001C600.801 66.4001 601.101 67.2001 601.101 68.1001C601.101 69.1001 600.801 69.9001 600.101 70.6001C599.401 71.3001 598.601 71.6001 597.701 71.6001Z" fill="white"/>
<path d="M178.799 80.3C178.799 80.6 178.799 80.9 178.799 81.2V81.4C179.199 90.1 180.099 110.9 173.599 116.3C172.699 117 171.799 117.4 170.699 117.4C169.199 117.4 161.699 116.7 161.699 102.1C161.699 101.9 160.999 88.6 178.699 79.4C178.699 79.7 178.799 80 178.799 80.3Z" fill="#101010"/>
</svg>
