<svg width="172" height="60" viewBox="0 0 172 60" fill="none" xmlns="http://www.w3.org/2000/svg">
<path d="M59.224 23.495C59.688 25.591 59.939 27.765 59.939 29.999C59.939 46.57 46.523 60 29.969 60C18.843 60 9.13802 53.924 3.96902 44.91C9.73202 37.424 15.33 31.736 19.297 37.194C23.71 43.27 27.019 42.349 27.019 42.349C31.803 42.349 38.974 37.011 38.974 37.011L59.224 23.495ZM120.471 41.024C122.965 41.024 124.788 42.848 124.788 45.96C124.788 49.091 122.754 51.742 119.741 51.742C118.437 51.742 117.266 51.242 116.441 50.455V55.603H115.981C115.691 55.603 115.596 55.527 115.596 55.277V41.273C115.769 41.215 115.98 41.177 116.172 41.177C116.364 41.177 116.441 41.254 116.441 41.407V43.597C117.189 42.118 118.647 41.024 120.471 41.024ZM96.345 37.834C98.802 37.834 100.568 39.083 101.375 40.677C101.489 40.889 101.431 41.024 101.258 41.138C101.084 41.2473 100.887 41.3134 100.683 41.331C99.877 39.563 98.284 38.603 96.345 38.603C93.775 38.603 91.299 40.659 91.299 44.289C91.299 48.458 94.235 50.974 97.574 50.974C98.744 50.974 99.914 50.724 100.856 50.148C100.943 50.2649 100.99 50.4065 100.99 50.552C100.99 50.992 99.474 51.742 97.536 51.742C93.544 51.742 90.454 48.822 90.454 44.347C90.454 40.14 93.352 37.834 96.345 37.834ZM134.04 38.238C134.232 38.238 134.31 38.315 134.31 38.468V41.254H137.975C138.224 41.254 138.301 41.35 138.301 41.638V42.022H134.309V48.496C134.309 50.225 135.153 50.974 136.419 50.974C137.034 50.974 137.667 50.859 138.204 50.59C138.301 50.705 138.358 50.859 138.358 50.993C138.358 51.262 137.495 51.743 136.362 51.743C134.597 51.743 133.464 50.57 133.464 48.553V42.022H131.641C131.488 42.022 131.411 41.926 131.411 41.772C131.411 41.581 131.449 41.388 131.488 41.254H133.464V38.334C133.65 38.2725 133.844 38.2401 134.04 38.238ZM107.689 41.024C110.087 41.024 111.757 42.291 111.757 44.788V49.802C111.757 50.628 112.007 50.916 112.487 50.916H112.813C112.851 51.012 112.87 51.127 112.87 51.243C112.87 51.435 112.563 51.646 112.121 51.646C111.45 51.646 110.913 51.089 110.913 49.763V49.63C110.222 50.782 108.821 51.742 107.074 51.742C104.887 51.742 103.524 50.398 103.524 48.476C103.524 46.402 105.098 45.192 107.478 45.192C108.686 45.192 109.858 45.46 110.913 45.96V44.712C110.913 42.675 109.493 41.792 107.555 41.792C106.345 41.792 105.309 42.022 104.522 42.483C104.438 42.3647 104.391 42.224 104.388 42.079C104.388 41.696 105.829 41.024 107.689 41.024ZM144.596 41.024C146.995 41.024 148.664 42.291 148.664 44.788V49.802C148.664 50.628 148.914 50.916 149.394 50.916H149.72C149.758 51.012 149.777 51.127 149.777 51.243C149.777 51.435 149.47 51.646 149.029 51.646C148.357 51.646 147.82 51.089 147.82 49.763V49.63C147.13 50.782 145.728 51.742 143.982 51.742C141.794 51.742 140.432 50.398 140.432 48.476C140.432 46.402 142.006 45.192 144.385 45.192C145.573 45.1908 146.746 45.4531 147.82 45.96V44.712C147.82 42.675 146.4 41.792 144.462 41.792C143.252 41.792 142.216 42.022 141.43 42.483C141.346 42.3648 141.299 42.2241 141.295 42.079C141.295 41.696 142.736 41.024 144.596 41.024ZM152.926 37.412C153.118 37.412 153.194 37.488 153.194 37.642V49.264C153.194 50.417 153.654 50.877 154.499 50.877C154.864 50.877 155.324 50.801 155.632 50.667C155.718 50.7836 155.765 50.9249 155.765 51.07C155.765 51.282 155.132 51.646 154.365 51.646C153.136 51.646 152.349 50.936 152.349 49.264V37.508C152.522 37.45 152.734 37.412 152.926 37.412ZM128.359 41.177C128.551 41.177 128.628 41.254 128.628 41.407V49.937C128.628 50.667 128.878 50.917 129.338 50.917H129.683C129.721 51.012 129.741 51.127 129.741 51.243C129.741 51.435 129.434 51.646 128.991 51.646C128.321 51.646 127.783 51.166 127.783 49.937V41.273C127.956 41.215 128.167 41.177 128.359 41.177ZM107.478 45.96C105.539 45.96 104.369 46.979 104.369 48.476C104.369 50.071 105.635 50.974 107.056 50.974C108.534 50.974 109.934 50.263 110.913 48.573V46.709C109.953 46.229 108.648 45.96 107.478 45.96ZM120.375 41.791C118.839 41.791 117.323 42.811 116.441 44.923V49.533C117.381 50.494 118.532 50.974 119.722 50.974C122.14 50.974 123.944 48.765 123.944 45.941C123.944 43.251 122.41 41.791 120.375 41.791ZM144.385 45.96C142.446 45.96 141.276 46.979 141.276 48.476C141.276 50.071 142.543 50.974 143.963 50.974C145.441 50.974 146.841 50.263 147.82 48.573V46.709C146.86 46.229 145.556 45.96 144.385 45.96ZM29.97 0C40.257 0 49.33 5.19 54.727 13.094L39.343 27.806C28.308 38.666 25 38.483 22.423 34.986C19.96 31.64 16.991 31.495 16.738 31.488H16.721C11.327 31.488 5.71502 40.044 3.43602 43.945C1.17374 39.6449 -0.00566741 34.8579 2.04757e-05 29.999C2.04757e-05 13.431 13.417 0 29.97 0ZM128.186 37.354C128.513 37.354 128.8 37.604 128.8 38.008C128.8 38.372 128.55 38.603 128.225 38.603C127.898 38.603 127.611 38.353 127.611 37.95C127.611 37.585 127.861 37.354 128.186 37.354ZM105.026 13.306C109.275 13.306 112.129 16.096 112.129 19.752C112.129 20.848 111.897 21.878 111.565 22.576C111.033 23.672 110.337 24.038 108.943 24.038H99.815C100.215 27.228 102.537 28.789 105.657 28.789C107.217 28.789 108.577 28.489 109.972 27.792C110.237 28.124 110.47 28.822 110.47 29.354C110.47 30.417 108.346 31.846 105.026 31.846C99.849 31.846 96.131 27.991 96.131 22.642C96.131 16.762 100.181 13.306 105.026 13.306ZM122.715 13.306C127.462 13.306 130.315 15.666 130.315 20.383V27.028C130.315 28.39 130.781 28.789 131.577 28.789H132.274C132.407 29.188 132.474 29.587 132.474 30.051C132.474 30.782 131.544 31.68 129.984 31.68C128.69 31.68 127.296 30.849 126.864 28.822C125.736 30.683 123.711 31.846 121.255 31.846C117.737 31.846 115.281 29.586 115.281 26.297C115.281 22.642 118.069 20.483 122.417 20.483C123.91 20.483 125.736 20.848 126.732 21.379V20.251C126.732 17.725 125.138 16.363 121.752 16.363C120.193 16.363 118.666 16.662 117.272 17.36C117.007 17.028 116.774 16.33 116.774 15.798C116.774 14.735 119.264 13.306 122.715 13.306ZM143.425 13.306C146.744 13.306 149.2 14.835 150.195 16.828C150.362 17.16 150.428 17.459 150.428 17.758C150.428 18.091 150.195 18.423 149.764 18.688C149.134 19.088 148.271 19.386 147.374 19.453C146.909 17.659 145.549 16.363 143.259 16.363C140.57 16.363 138.512 18.489 138.512 21.945C138.512 26.43 141.566 28.789 145.051 28.789C146.611 28.789 148.038 28.489 149.432 27.792C149.697 28.191 149.929 28.855 149.929 29.354C149.929 30.417 147.772 31.846 144.519 31.846C139.608 31.846 134.861 28.291 134.861 22.045C134.861 16.595 138.446 13.306 143.424 13.306H143.425ZM83.254 8.19C88.896 8.19 92.381 11.213 92.381 16.23C92.381 20.118 90.257 22.675 87.104 23.739C88.232 25.5 89.328 26.862 90.29 27.759C91.053 28.489 91.784 28.822 92.514 28.822H93.211C93.344 29.221 93.411 29.653 93.411 30.118C93.411 30.915 92.481 31.846 90.788 31.846C89.195 31.846 87.901 30.882 86.772 29.52C85.4402 27.8963 84.2835 26.1365 83.321 24.27C82.225 24.237 80.931 24.104 80.001 23.772V31.447H77.28C76.517 31.447 76.218 31.181 76.218 30.617V8.19H83.254ZM156.731 6.96C157.494 6.96 157.826 7.226 157.826 7.79V15.665C159.121 14.336 161.311 13.306 163.502 13.306C167.518 13.306 169.842 16.163 169.842 21.181V27.028C169.842 28.291 170.174 28.789 170.97 28.789H171.8C171.932 29.188 171.999 29.587 171.999 30.051C171.999 30.782 171.069 31.68 169.509 31.68C167.883 31.68 166.256 30.75 166.256 27.36V20.815C166.256 17.891 165.062 16.363 162.473 16.363C160.846 16.363 158.988 17.061 157.826 18.157V31.447H155.304C154.54 31.447 154.241 31.181 154.241 30.617V7.292C155.052 7.06931 155.89 6.9583 156.731 6.96ZM122.948 23.54C120.326 23.54 118.865 24.471 118.865 26.198C118.865 27.959 120.293 28.79 122.151 28.79C123.943 28.79 125.868 27.76 126.731 26.032V24.006C125.935 23.706 124.076 23.54 122.948 23.54ZM104.827 16.364C102.106 16.364 100.247 18.125 99.849 21.049H108.379C108.545 20.716 108.611 20.317 108.611 19.952C108.611 17.759 107.284 16.364 104.827 16.364ZM82.923 11.38H80.003V20.75C80.899 20.95 81.861 21.016 82.889 21.016C86.242 21.016 88.466 19.42 88.466 16.231C88.466 13.075 86.376 11.38 82.923 11.38Z" fill="white"/>
</svg>
