<svg width="1205" height="351" viewBox="0 0 1205 351" fill="none" xmlns="http://www.w3.org/2000/svg">
<g filter="url(#filter0_d_831_169)">
<path d="M997.537 320.596C888.068 320.596 778.915 320.596 669.51 320.596C669.51 290.615 669.51 260.735 669.51 230.658C662.234 230.658 655.204 230.658 647.921 230.658C647.921 260.447 647.921 290.327 647.921 320.401C602.556 320.401 557.444 320.401 512.08 320.401C512.08 250.614 512.08 180.747 512.08 110.684C488.934 110.684 466.037 110.684 442.889 110.684C442.889 180.259 442.889 249.915 442.889 319.766C407.682 319.766 372.726 319.766 337.518 319.766C337.518 250.19 337.518 180.534 337.518 110.652C336.374 110.588 335.465 110.495 334.557 110.495C313.61 110.486 292.664 110.515 271.718 110.447C269.592 110.44 268.513 110.975 267.479 113.053C233.49 181.294 199.397 249.485 165.302 317.674C164.868 318.543 164.197 319.293 163.386 320.458C110.777 215.239 58.3796 110.444 5.8042 5.29298C6.85919 5.22169 7.63304 5.12386 8.40692 5.12367C41.8362 5.11608 75.2656 5.14006 108.695 5.06246C110.794 5.05758 111.798 5.74418 112.704 7.56483C129.372 41.0521 146.106 74.5069 162.832 107.965C162.952 108.206 163.165 108.4 163.6 108.955C167.66 100.79 171.585 92.875 175.529 84.9694C188.442 59.0901 201.378 33.2227 214.241 7.31916C215.13 5.5295 216.267 5.08012 218.15 5.08067C360.542 5.12049 502.934 5.11712 645.326 5.11712C646.045 5.11712 646.763 5.11712 647.733 5.11712C647.733 34.9851 647.733 64.6529 647.733 94.4694C655.012 94.4694 662.04 94.4694 669.322 94.4694C669.322 64.7438 669.322 35.0759 669.322 5.26318C714.687 5.26318 759.799 5.26318 805.258 5.26318C805.258 38.2309 805.258 71.1343 805.258 104.038C805.492 104.094 805.725 104.15 805.958 104.206C822.45 69.73 838.941 35.2538 855.608 0.410156C858.167 5.60017 860.61 10.4556 862.965 15.3528C867.65 25.0945 872.278 34.8639 876.947 44.6132C884.129 59.6082 891.321 74.5983 898.519 89.5859C903.332 99.6082 908.181 109.613 912.98 119.643C920.023 134.362 927.024 149.102 934.065 163.823C938.863 173.852 943.718 183.854 948.506 193.887C950.997 199.107 953.398 204.369 956.194 210.373C958.565 206.879 960.582 203.977 962.528 201.029C970.64 188.741 978.694 176.415 986.889 164.182C987.677 163.006 987.596 162.611 986.857 161.5C977.513 147.453 968.303 133.317 958.995 119.247C943.585 95.9538 928.11 72.7042 912.7 49.412C905.421 38.4107 898.216 27.3606 891.002 16.3167C888.626 12.6798 886.326 8.99294 883.89 5.1683C985.837 5.1683 1087.39 5.1683 1189.7 5.1683C1187.28 8.87454 1185.12 12.235 1182.92 15.5601C1172.84 30.7309 1162.72 45.8703 1152.68 61.0623C1142.92 75.8218 1133.25 90.6392 1123.53 105.418C1111.27 124.041 1098.97 142.64 1086.77 161.305C1086.29 162.043 1086.26 163.63 1086.73 164.353C1098.61 182.496 1110.56 200.59 1122.54 218.665C1142.55 248.851 1162.59 279.012 1182.59 309.206C1184.94 312.757 1187.07 316.453 1189.63 320.596C1125.37 320.596 1061.61 320.596 997.537 320.596ZM697.293 224.429C697.293 247.126 697.293 269.823 697.293 292.491C723.928 292.491 750.207 292.491 776.656 292.491C776.656 205.908 776.656 119.498 776.656 33.2737C749.899 33.2737 723.62 33.2737 697.096 33.2737C697.096 63.1645 697.096 92.8286 697.096 122.33C671.203 122.33 645.559 122.33 619.669 122.33C619.669 92.4465 619.669 62.7824 619.669 33.2582C592.931 33.2582 566.441 33.2582 540.065 33.2582C540.065 119.83 540.065 206.19 540.065 292.476C566.749 292.476 593.239 292.476 619.975 292.476C619.975 262.411 619.975 232.535 619.975 202.711C645.867 202.711 671.511 202.711 697.293 202.711C697.293 209.86 697.293 216.827 697.293 224.429ZM1004.54 188.33C999.779 195.596 995.04 202.877 990.25 210.124C983.989 219.598 977.657 229.024 971.455 238.537C970.93 239.342 970.711 240.851 971.103 241.675C978.783 257.791 986.642 273.823 994.267 289.965C995.307 292.166 996.485 292.708 998.704 292.705C1043.87 292.653 1089.04 292.666 1134.21 292.666C1135.32 292.666 1136.43 292.666 1137.75 292.666C1123.89 271.628 1110.26 250.882 1096.57 230.166C1082.08 208.231 1067.54 186.334 1053.1 164.366C1052.62 163.642 1052.65 162.065 1053.12 161.318C1058.55 152.774 1064.05 144.275 1069.64 135.839C1088.46 107.444 1107.33 79.0818 1126.17 50.6972C1130.01 44.8998 1133.8 39.06 1137.59 33.2624C1070.25 33.2624 1003.16 33.2624 935.833 33.2624C941.84 42.4936 947.614 51.5122 953.534 60.4342C967.449 81.407 981.437 102.331 995.388 123.28C1003.78 135.882 1012.18 148.479 1020.48 161.137C1021 161.924 1021.21 163.542 1020.75 164.241C1015.53 172.203 1010.15 180.06 1004.54 188.33ZM805.203 254.263C805.203 267.017 805.203 279.77 805.203 292.349C858.432 292.349 911.301 292.349 964.19 292.349C964.15 292.229 964.061 291.853 963.902 291.51C959.227 281.442 954.605 271.348 949.848 261.319C944.391 249.817 938.814 238.372 933.288 226.903C928.685 217.349 924.06 207.805 919.479 198.239C912.477 183.618 905.507 168.981 898.519 154.352C894.081 145.06 889.639 135.769 885.194 126.481C875.906 107.071 866.621 87.6595 857.301 68.265C856.908 67.447 856.177 66.7917 855.603 66.0607C855.047 66.8263 854.355 67.5275 853.956 68.3677C850.939 74.718 848.022 81.1156 844.993 87.4605C838.318 101.447 831.608 115.417 824.891 129.384C818.833 141.978 812.695 154.533 806.728 167.17C805.839 169.051 805.274 171.282 805.267 173.354C805.171 200.111 805.203 226.87 805.203 254.263Z" fill="white"/>
</g>
<defs>
<filter id="filter0_d_831_169" x="0.804199" y="0.410156" width="1203.89" height="350.185" filterUnits="userSpaceOnUse" color-interpolation-filters="sRGB">
<feFlood flood-opacity="0" result="BackgroundImageFix"/>
<feColorMatrix in="SourceAlpha" type="matrix" values="0 0 0 0 0 0 0 0 0 0 0 0 0 0 0 0 0 0 127 0" result="hardAlpha"/>
<feOffset dx="5" dy="20"/>
<feGaussianBlur stdDeviation="5"/>
<feComposite in2="hardAlpha" operator="out"/>
<feColorMatrix type="matrix" values="0 0 0 0 0 0 0 0 0 0 0 0 0 0 0 0 0 0 0.25 0"/>
<feBlend mode="normal" in2="BackgroundImageFix" result="effect1_dropShadow_831_169"/>
<feBlend mode="normal" in="SourceGraphic" in2="effect1_dropShadow_831_169" result="shape"/>
</filter>
</defs>
</svg>
